<svg xmlns="http://www.w3.org/2000/svg" viewBox="0 0 648 768"><path d="M 380.5,0.0 L 381.5,2.0 L 382.5,4.0 L 383.0,6.5 L 383.5,9.0 L 384.5,11.0 L 385.5,13.0 L 386.5,15.0 L 386.5,18.0 L 387.0,20.5 L 387.5,23.0 L 389.0,24.5 L 389.5,27.0 L 390.5,29.0 L 392.5,30.0 L 394.5,31.0 L 396.0,32.5 L 397.0,34.5 L 397.5,37.0 L 398.5,39.0 L 398.5,42.0 L 398.5,45.0 L 398.5,48.0 L 398.5,51.0 L 398.5,54.0 L 397.5,53.0 L 397.5,50.0 L 397.5,47.0 L 397.5,44.0 L 396.5,42.0 L 395.0,40.5 L 393.5,39.0 L 392.5,37.0 L 391.0,35.5 L 389.5,34.0 L 388.0,32.5 L 387.0,30.5 L 385.5,29.0 L 384.5,27.0 L 384.5,24.0 L 383.5,22.0 L 383.0,19.5 L 382.0,17.5 L 380.5,19.0 L 379.5,21.0 L 379.5,24.0 L 378.5,26.0 L 378.5,29.0 L 376.5,30.0 L 375.0,29.5 L 374.5,27.0 L 373.5,25.0 L 373.5,22.0 L 372.5,20.0 L 372.0,17.5 L 370.5,19.0 L 370.0,21.5 L 368.5,23.0 L 367.5,25.0 L 366.0,26.5 L 364.5,28.0 L 363.5,30.0 L 362.5,32.0 L 361.5,34.0 L 360.5,36.0 L 360.0,38.5 L 359.0,40.5 L 358.0,42.5 L 357.5,45.0 L 357.5,48.0 L 357.5,51.0 L 357.5,54.0 L 357.5,57.0 L 356.5,59.0 L 355.5,58.0 L 355.5,55.0 L 355.5,52.0 L 355.5,49.0 L 354.5,47.0 L 354.5,44.0 L 355.5,42.0 L 355.5,39.0 L 356.5,37.0 L 357.5,35.0 L 358.5,33.0 L 359.5,31.0 L 360.5,29.0 L 361.5,27.0 L 363.0,25.5 L 364.0,23.5 L 365.0,21.5 L 366.0,19.5 L 367.5,18.0 L 368.5,16.0 L 368.5,13.0 L 369.5,11.0 L 370.0,8.5 L 371.0,6.5 L 372.5,5.0 L 373.5,3.0 L 374.5,1.0" fill="none" stroke="#dcc8a8" stroke-width="1"/><path d="M 379.5,15.0 L 380.5,13.0 L 380.5,10.0 L 379.5,8.0 L 378.5,7.0 L 376.5,8.0 L 375.5,10.0 L 374.5,12.0 L 376.0,13.5 L 378.0,14.5 L 379.5,15.0" fill="none" stroke="#dcc8a8" stroke-width="1"/><path d="M 199.0,716.5 L 196.0,716.5 L 194.0,715.5 L 192.5,714.0 L 192.5,711.0 L 193.5,709.0 L 194.5,707.0 L 194.5,704.0 L 195.5,702.0 L 195.5,699.0 L 195.5,696.0 L 195.5,693.0 L 195.5,690.0 L 195.0,687.5 L 194.5,685.0 L 194.5,682.0 L 194.0,679.5 L 193.5,677.0 L 193.5,674.0 L 193.5,671.0 L 193.5,668.0 L 193.5,665.0 L 193.5,662.0 L 194.0,659.5 L 194.5,657.0 L 194.5,654.0 L 195.5,652.0 L 195.5,649.0 L 195.5,646.0 L 196.5,644.0 L 196.5,641.0 L 197.0,638.5 L 197.5,636.0 L 197.5,633.0 L 197.5,630.0 L 197.0,627.5 L 195.5,626.0 L 194.5,624.0 L 193.5,622.0 L 192.0,620.5 L 190.5,619.0 L 189.5,617.0 L 187.5,616.0 L 186.5,614.0 L 184.5,613.0 L 183.5,611.0 L 181.5,610.0 L 180.5,608.0 L 179.0,606.5 L 178.5,604.0 L 177.0,602.5 L 175.5,601.0 L 175.5,598.0 L 177.5,598.0 L 178.0,600.5 L 180.0,601.5 L 180.5,604.0 L 182.0,605.5 L 184.0,606.5 L 185.5,608.0 L 187.0,609.5 L 188.5,611.0 L 190.5,612.0 L 192.0,613.5 L 193.5,612.0 L 192.5,610.0 L 192.0,607.5 L 191.5,605.0 L 190.5,603.0 L 190.5,600.0 L 189.0,598.5 L 188.5,596.0 L 188.5,593.0 L 190.0,593.5 L 191.0,595.5 L 192.0,597.5 L 193.5,599.0 L 194.5,601.0 L 195.5,603.0 L 197.5,604.0 L 199.0,605.5 L 200.0,603.5 L 200.5,601.0 L 202.0,599.5 L 202.5,597.0 L 203.5,595.0 L 205.0,593.5 L 206.0,591.5 L 206.5,589.0 L 206.5,586.0 L 207.5,584.0 L 208.0,581.5 L 209.0,579.5 L 209.5,577.0 L 210.5,575.0 L 211.0,572.5 L 212.5,571.0 L 213.0,568.5 L 213.5,566.0 L 215.0,564.5 L 215.5,562.0 L 216.5,560.0 L 217.0,557.5 L 218.5,556.0 L 219.0,553.5 L 219.5,551.0 L 219.5,548.0 L 219.5,545.0 L 218.5,543.0 L 218.0,540.5 L 217.5,538.0 L 216.5,536.0 L 216.5,533.0 L 216.5,530.0 L 218.0,528.5 L 219.0,530.5 L 219.5,533.0 L 220.0,535.5 L 221.0,537.5 L 222.5,536.0 L 222.5,533.0 L 223.5,531.0 L 224.5,529.0 L 225.0,526.5 L 225.5,524.0 L 225.5,521.0 L 226.5,519.0 L 226.5,516.0 L 227.5,514.0 L 228.5,512.0 L 228.5,509.0 L 229.5,507.0 L 229.5,504.0 L 230.5,502.0 L 231.5,500.0 L 232.5,498.0 L 232.5,495.0 L 233.0,492.5 L 233.5,490.0 L 235.0,488.5 L 236.5,487.0 L 236.5,484.0 L 235.5,482.0 L 236.0,479.5 L 236.5,477.0 L 237.0,474.5 L 238.0,472.5 L 238.5,470.0 L 238.5,467.0 L 238.5,464.0 L 238.5,461.0 L 239.5,459.0 L 239.5,456.0 L 238.5,454.0 L 238.5,451.0 L 236.5,451.0 L 236.0,453.5 L 235.0,455.5 L 233.5,457.0 L 232.5,459.0 L 231.5,461.0 L 230.0,462.5 L 229.5,465.0 L 228.0,466.5 L 226.5,468.0 L 225.5,470.0 L 224.0,471.5 L 223.5,469.0 L 224.0,466.5 L 225.5,465.0 L 226.5,463.0 L 227.0,460.5 L 228.5,459.0 L 229.5,457.0 L 230.0,454.5 L 231.5,453.0 L 232.5,451.0 L 232.5,448.0 L 234.0,446.5 L 235.0,444.5 L 235.5,442.0 L 236.5,440.0 L 237.0,437.5 L 237.5,435.0 L 238.5,433.0 L 238.5,430.0 L 239.5,428.0 L 240.5,426.0 L 241.5,424.0 L 241.5,421.0 L 241.5,418.0 L 241.5,415.0 L 241.5,412.0 L 242.5,410.0 L 244.0,408.5 L 246.0,409.5 L 248.0,410.5 L 249.0,412.5 L 249.5,415.0 L 249.5,418.0 L 249.5,421.0 L 250.0,423.5 L 250.5,426.0 L 251.5,428.0 L 252.0,430.5 L 252.5,433.0 L 252.5,436.0 L 253.5,438.0 L 254.5,440.0 L 255.0,442.5 L 255.5,445.0 L 255.5,448.0 L 256.5,450.0 L 256.5,453.0 L 257.5,455.0 L 257.5,458.0 L 257.5,461.0 L 257.5,464.0 L 257.5,467.0 L 257.5,470.0 L 257.5,473.0 L 256.5,475.0 L 255.5,477.0 L 255.5,480.0 L 255.5,483.0 L 255.0,485.5 L 254.5,488.0 L 254.0,490.5 L 253.0,492.5 L 252.5,490.0 L 252.0,487.5 L 252.0,485.5 L 252.5,483.0 L 252.5,480.0 L 252.5,477.0 L 253.0,474.5 L 252.5,473.0 L 252.5,470.0 L 252.5,467.0 L 252.5,464.0 L 252.5,461.0 L 251.5,459.0 L 251.5,456.0 L 251.5,453.0 L 251.5,450.0 L 250.5,448.0 L 250.0,445.5 L 248.5,444.0 L 248.0,441.5 L 247.0,439.5 L 246.5,442.0 L 246.5,445.0 L 246.5,448.0 L 246.5,451.0 L 246.0,453.5 L 245.5,456.0 L 245.5,459.0 L 244.5,461.0 L 244.0,463.5 L 243.5,466.0 L 242.5,468.0 L 242.5,471.0 L 242.5,474.0 L 241.5,476.0 L 241.0,478.5 L 240.0,480.5 L 239.0,482.5 L 238.5,485.0 L 237.5,487.0 L 237.0,489.5 L 236.5,492.0 L 236.5,495.0 L 235.5,497.0 L 235.5,500.0 L 235.5,503.0 L 234.5,505.0 L 233.5,507.0 L 233.5,510.0 L 233.0,512.5 L 232.5,515.0 L 232.5,518.0 L 231.5,520.0 L 230.5,522.0 L 230.5,525.0 L 230.5,528.0 L 230.5,531.0 L 231.5,530.0 L 233.0,528.5 L 234.5,527.0 L 235.5,525.0 L 236.5,523.0 L 238.0,521.5 L 239.0,519.5 L 240.0,517.5 L 241.5,516.0 L 242.5,514.0 L 243.5,512.0 L 245.0,512.5 L 245.5,515.0 L 244.5,517.0 L 244.0,519.5 L 242.5,521.0 L 242.0,523.5 L 241.0,525.5 L 239.5,527.0 L 238.5,529.0 L 237.0,530.5 L 236.0,532.5 L 235.0,534.5 L 234.0,536.5 L 233.0,538.5 L 232.0,540.5 L 230.5,542.0 L 229.5,544.0 L 229.0,546.5 L 227.5,548.0 L 226.5,550.0 L 227.5,552.0 L 228.5,551.0 L 229.5,549.0 L 231.5,548.0 L 232.5,546.0 L 234.0,544.5 L 235.5,543.0 L 236.5,541.0 L 238.0,539.5 L 239.5,538.0 L 240.5,536.0 L 241.5,534.0 L 243.0,532.5 L 244.5,531.0 L 245.5,529.0 L 247.0,527.5 L 248.5,526.0 L 249.5,524.0 L 250.5,522.0 L 252.0,520.5 L 253.0,518.5 L 254.5,517.0 L 255.5,515.0 L 257.0,513.5 L 258.0,511.5 L 259.0,509.5 L 260.5,508.0 L 261.5,506.0 L 263.0,504.5 L 264.5,503.0 L 265.5,501.0 L 267.0,499.5 L 268.5,498.0 L 269.5,496.0 L 271.5,495.0 L 272.5,493.0 L 274.5,492.0 L 276.0,490.5 L 277.5,489.0 L 279.0,487.5 L 281.0,486.5 L 283.0,485.5 L 285.0,484.5 L 287.0,483.5 L 289.0,482.5 L 291.0,481.5 L 292.5,480.0 L 294.5,479.0 L 296.5,478.0 L 298.0,476.5 L 300.5,476.0 L 303.0,475.5 L 305.0,474.5 L 307.0,473.5 L 309.0,472.5 L 311.0,471.5 L 312.5,470.0 L 314.5,469.0 L 317.0,468.5 L 319.0,467.5 L 322.0,467.5 L 324.0,466.5 L 326.0,465.5 L 328.0,464.5 L 329.5,463.0 L 331.0,461.5 L 331.5,459.0 L 331.5,456.0 L 332.5,454.0 L 332.5,451.0 L 332.5,448.0 L 332.5,445.0 L 332.5,442.0 L 332.5,439.0 L 332.5,436.0 L 332.5,433.0 L 332.5,430.0 L 332.5,427.0 L 332.5,424.0 L 331.5,422.0 L 331.5,419.0 L 331.5,416.0 L 330.5,414.0 L 329.5,412.0 L 329.0,409.5 L 328.5,407.0 L 327.5,405.0 L 326.0,403.5 L 325.0,401.5 L 324.0,399.5 L 322.5,398.0 L 321.5,396.0 L 320.0,394.5 L 317.5,394.0 L 315.5,393.0 L 313.5,392.0 L 311.5,391.0 L 310.0,389.5 L 308.0,388.5 L 306.0,387.5 L 304.0,386.5 L 302.0,385.5 L 300.0,384.5 L 298.0,383.5 L 296.5,382.0 L 294.5,381.0 L 293.0,379.5 L 291.0,378.5 L 289.5,377.0 L 292.0,376.5 L 294.0,377.5 L 296.0,378.5 L 298.0,379.5 L 300.0,380.5 L 302.0,381.5 L 304.0,382.5 L 306.5,383.0 L 309.0,383.5 L 310.5,385.0 L 312.0,384.5 L 311.5,383.0 L 310.5,381.0 L 309.0,379.5 L 308.0,377.5 L 306.0,376.5 L 304.5,375.0 L 303.0,373.5 L 301.5,372.0 L 300.0,370.5 L 298.0,369.5 L 296.5,368.0 L 295.0,366.5 L 293.0,365.5 L 291.5,364.0 L 290.0,362.5 L 289.0,360.5 L 287.5,359.0 L 286.5,357.0 L 285.0,355.5 L 286.0,354.5 L 288.5,355.0 L 290.0,356.5 L 291.5,358.0 L 293.0,359.5 L 295.0,360.5 L 296.5,362.0 L 298.0,363.5 L 300.0,364.5 L 302.0,365.5 L 304.0,366.5 L 305.5,365.0 L 304.0,363.5 L 302.5,362.0 L 301.0,360.5 L 300.0,358.5 L 298.5,357.0 L 297.0,355.5 L 296.0,353.5 L 294.5,352.0 L 293.5,350.0 L 292.5,348.0 L 291.0,346.5 L 291.5,345.0 L 293.0,345.5 L 294.0,347.5 L 296.0,348.5 L 297.0,350.5 L 299.0,351.5 L 300.0,353.5 L 301.5,355.0 L 303.0,356.5 L 304.0,358.5 L 306.0,359.5 L 308.0,360.5 L 309.5,362.0 L 310.5,364.0 L 312.0,365.5 L 313.0,367.5 L 314.0,369.5 L 315.5,371.0 L 316.0,373.5 L 316.5,376.0 L 317.5,378.0 L 319.0,379.5 L 320.0,381.5 L 321.0,383.5 L 322.5,385.0 L 323.5,387.0 L 324.5,386.0 L 325.5,384.0 L 325.5,381.0 L 324.5,379.0 L 323.5,377.0 L 322.5,375.0 L 322.5,372.0 L 321.5,370.0 L 320.5,368.0 L 319.5,366.0 L 319.0,363.5 L 318.0,361.5 L 316.5,360.0 L 316.0,357.5 L 315.5,355.0 L 314.5,353.0 L 313.5,351.0 L 312.5,349.0 L 312.0,346.5 L 310.5,345.0 L 309.5,343.0 L 309.5,340.0 L 308.5,338.0 L 307.0,336.5 L 306.5,334.0 L 305.5,332.0 L 304.5,330.0 L 303.5,328.0 L 303.0,325.5 L 302.0,323.5 L 300.5,322.0 L 300.0,319.5 L 299.0,317.5 L 298.0,315.5 L 296.5,314.0 L 296.0,311.5 L 294.5,310.0 L 293.5,308.0 L 292.5,306.0 L 290.5,305.0 L 289.5,303.0 L 288.0,301.5 L 286.0,300.5 L 284.5,299.0 L 282.5,298.0 L 281.5,296.0 L 279.5,295.0 L 278.5,293.0 L 277.0,291.5 L 275.5,290.0 L 273.5,289.0 L 272.0,287.5 L 271.0,285.5 L 269.5,284.0 L 268.0,282.5 L 267.0,280.5 L 265.5,279.0 L 265.0,276.5 L 263.0,275.5 L 262.5,273.0 L 261.5,271.0 L 263.0,269.5 L 264.0,271.5 L 264.5,274.0 L 266.5,275.0 L 267.5,277.0 L 268.5,279.0 L 270.0,280.5 L 271.0,282.5 L 273.0,283.5 L 274.0,285.5 L 275.0,287.5 L 276.5,289.0 L 278.0,290.5 L 280.0,291.5 L 281.0,293.5 L 283.5,294.0 L 284.5,296.0 L 286.5,296.0 L 287.5,294.0 L 286.5,292.0 L 285.5,290.0 L 284.5,288.0 L 284.0,285.5 L 283.5,283.0 L 282.0,281.5 L 281.5,279.0 L 280.5,277.0 L 280.0,274.5 L 278.5,273.0 L 278.5,270.0 L 277.5,268.0 L 277.5,265.0 L 279.5,265.0 L 280.5,267.0 L 280.5,270.0 L 281.5,272.0 L 283.0,273.5 L 283.5,276.0 L 284.5,278.0 L 286.0,279.5 L 287.0,281.5 L 287.5,284.0 L 288.5,286.0 L 290.0,287.5 L 291.0,289.5 L 291.5,292.0 L 294.0,292.5 L 295.5,293.0 L 296.0,290.5 L 296.5,288.0 L 297.0,285.5 L 297.5,283.0 L 297.5,280.0 L 297.5,277.0 L 297.5,274.0 L 297.5,271.0 L 297.5,268.0 L 297.5,265.0 L 297.5,262.0 L 298.0,259.5 L 299.0,261.5 L 299.5,264.0 L 299.5,267.0 L 299.5,270.0 L 300.5,272.0 L 301.0,274.5 L 301.5,277.0 L 301.5,280.0 L 300.5,282.0 L 300.5,285.0 L 300.5,288.0 L 300.5,291.0 L 299.5,293.0 L 299.5,296.0 L 299.5,299.0 L 299.5,302.0 L 300.5,304.0 L 300.5,307.0 L 301.5,309.0 L 301.5,312.0 L 302.5,314.0 L 303.5,316.0 L 304.0,318.5 L 305.0,320.5 L 306.0,322.5 L 306.5,325.0 L 307.5,327.0 L 309.0,328.5 L 310.0,330.5 L 310.5,333.0 L 312.0,334.5 L 313.0,336.5 L 313.5,339.0 L 314.5,341.0 L 315.5,343.0 L 316.5,345.0 L 317.0,347.5 L 318.0,349.5 L 319.0,351.5 L 319.5,354.0 L 320.0,356.5 L 321.0,358.5 L 322.0,360.5 L 322.5,363.0 L 323.5,365.0 L 324.5,367.0 L 325.5,369.0 L 325.5,372.0 L 326.5,374.0 L 327.5,376.0 L 329.0,377.5 L 330.5,378.0 L 330.5,375.0 L 330.5,372.0 L 329.5,370.0 L 329.5,367.0 L 328.5,365.0 L 328.5,362.0 L 327.5,360.0 L 326.5,358.0 L 325.5,356.0 L 325.5,353.0 L 324.0,351.5 L 323.5,349.0 L 322.5,347.0 L 322.5,344.0 L 322.5,341.0 L 322.5,338.0 L 322.5,335.0 L 323.0,332.5 L 323.5,330.0 L 323.5,327.0 L 324.0,324.5 L 325.5,326.0 L 325.5,329.0 L 325.5,332.0 L 325.5,335.0 L 325.5,338.0 L 325.5,341.0 L 325.5,344.0 L 326.0,346.5 L 326.5,349.0 L 328.0,350.5 L 328.5,353.0 L 329.0,355.5 L 330.0,357.5 L 331.5,359.0 L 332.5,361.0 L 333.0,363.5 L 334.5,364.0 L 335.5,362.0 L 336.0,359.5 L 336.5,357.0 L 337.5,358.0 L 338.5,360.0 L 338.5,363.0 L 338.5,366.0 L 337.5,368.0 L 337.5,371.0 L 339.0,372.5 L 341.5,372.0 L 342.0,369.5 L 343.0,367.5 L 344.5,366.0 L 345.5,364.0 L 346.0,361.5 L 347.5,360.0 L 348.5,358.0 L 348.5,355.0 L 349.5,353.0 L 350.5,352.0 L 351.5,354.0 L 351.5,357.0 L 350.5,359.0 L 350.0,361.5 L 348.5,363.0 L 348.0,365.5 L 347.0,367.5 L 345.5,369.0 L 344.5,371.0 L 344.0,373.5 L 342.5,375.0 L 341.5,377.0 L 340.5,379.0 L 339.5,381.0 L 338.5,383.0 L 338.5,386.0 L 338.5,389.0 L 337.5,391.0 L 336.5,393.0 L 336.5,396.0 L 335.5,398.0 L 335.5,401.0 L 334.5,403.0 L 335.5,405.0 L 335.5,408.0 L 336.5,410.0 L 336.5,413.0 L 336.5,416.0 L 337.0,418.5 L 337.5,421.0 L 337.5,424.0 L 337.5,427.0 L 338.5,429.0 L 338.5,432.0 L 338.5,435.0 L 338.5,438.0 L 338.5,441.0 L 340.0,442.5 L 341.5,441.0 L 342.0,438.5 L 342.5,436.0 L 343.5,434.0 L 345.5,433.0 L 345.5,430.0 L 345.5,427.0 L 346.5,425.0 L 347.0,422.5 L 347.5,425.0 L 347.5,428.0 L 346.5,430.0 L 346.5,433.0 L 345.5,435.0 L 345.5,438.0 L 345.5,441.0 L 345.5,444.0 L 345.5,447.0 L 344.5,449.0 L 345.0,451.5 L 346.0,453.5 L 347.5,452.0 L 348.5,450.0 L 350.0,448.5 L 351.5,447.0 L 352.0,444.5 L 352.5,442.0 L 353.5,441.0 L 354.0,442.5 L 353.5,445.0 L 353.5,448.0 L 352.0,449.5 L 351.5,452.0 L 351.0,454.5 L 350.5,457.0 L 349.0,458.5 L 348.5,461.0 L 347.5,463.0 L 346.5,465.0 L 345.5,467.0 L 344.5,469.0 L 343.5,471.0 L 342.5,473.0 L 341.5,475.0 L 340.0,476.5 L 339.5,479.0 L 338.5,481.0 L 337.5,483.0 L 337.0,484.5 L 339.0,483.5 L 341.0,482.5 L 342.5,481.0 L 344.5,480.0 L 346.0,478.5 L 347.5,477.0 L 349.0,475.5 L 351.0,474.5 L 353.0,473.5 L 354.5,472.0 L 356.0,470.5 L 357.5,469.0 L 359.0,467.5 L 360.5,466.0 L 362.0,464.5 L 363.5,463.0 L 365.0,461.5 L 366.5,460.0 L 368.0,458.5 L 369.5,457.0 L 371.0,455.5 L 372.5,454.0 L 373.5,452.0 L 375.0,450.5 L 376.0,448.5 L 376.5,446.0 L 377.5,444.0 L 379.0,442.5 L 379.5,440.0 L 380.0,437.5 L 380.5,435.0 L 381.5,433.0 L 382.5,431.0 L 383.0,428.5 L 383.5,426.0 L 383.5,423.0 L 384.5,421.0 L 384.5,418.0 L 385.5,416.0 L 385.5,413.0 L 385.0,410.5 L 384.5,408.0 L 386.0,406.5 L 388.5,406.0 L 389.5,404.0 L 389.5,401.0 L 389.5,398.0 L 389.5,395.0 L 389.0,392.5 L 388.5,390.0 L 388.5,387.0 L 387.5,385.0 L 387.5,382.0 L 387.5,379.0 L 387.0,376.5 L 386.5,374.0 L 386.0,371.5 L 385.5,369.0 L 386.5,367.0 L 387.0,364.5 L 388.0,362.5 L 389.0,360.5 L 389.5,358.0 L 391.0,356.5 L 392.5,358.0 L 392.5,361.0 L 392.0,363.5 L 391.5,366.0 L 392.0,368.5 L 392.5,371.0 L 392.5,374.0 L 392.5,377.0 L 392.5,380.0 L 392.5,383.0 L 393.0,385.5 L 393.5,388.0 L 393.5,391.0 L 394.5,393.0 L 396.0,394.5 L 398.0,395.5 L 399.0,393.5 L 399.5,391.0 L 400.5,389.0 L 401.5,387.0 L 402.5,385.0 L 402.5,382.0 L 403.5,380.0 L 405.0,378.5 L 406.0,380.5 L 405.5,382.0 L 405.5,385.0 L 405.5,388.0 L 404.5,390.0 L 403.5,392.0 L 403.5,395.0 L 402.5,397.0 L 402.5,400.0 L 402.0,402.5 L 401.0,404.5 L 400.5,407.0 L 399.5,409.0 L 399.5,412.0 L 398.5,414.0 L 397.5,416.0 L 397.5,419.0 L 396.5,421.0 L 395.5,423.0 L 394.5,425.0 L 394.0,427.5 L 393.0,429.5 L 392.0,431.5 L 391.0,433.5 L 390.0,435.5 L 390.5,437.0 L 392.0,436.5 L 393.0,434.5 L 395.0,433.5 L 396.0,431.5 L 398.0,430.5 L 399.0,428.5 L 400.5,427.0 L 402.0,425.5 L 403.0,423.5 L 404.5,422.0 L 406.0,420.5 L 407.0,418.5 L 408.5,417.0 L 409.5,415.0 L 411.0,413.5 L 412.0,411.5 L 413.5,410.0 L 414.5,408.0 L 415.5,406.0 L 416.5,404.0 L 418.0,402.5 L 418.5,400.0 L 420.0,398.5 L 421.5,397.0 L 422.5,395.0 L 423.5,393.0 L 424.5,391.0 L 425.5,389.0 L 426.5,387.0 L 427.5,385.0 L 428.5,383.0 L 429.0,380.5 L 430.5,379.0 L 431.5,377.0 L 431.5,374.0 L 432.5,372.0 L 433.5,370.0 L 434.5,368.0 L 434.5,365.0 L 435.5,363.0 L 436.5,361.0 L 437.5,359.0 L 437.5,356.0 L 438.0,353.5 L 439.0,351.5 L 439.5,349.0 L 438.5,347.0 L 437.0,345.5 L 435.5,344.0 L 435.0,341.5 L 434.0,339.5 L 432.5,338.0 L 432.5,335.0 L 434.0,333.5 L 435.5,335.0 L 436.5,337.0 L 437.5,339.0 L 438.0,341.5 L 440.0,342.5 L 440.5,340.0 L 441.5,338.0 L 442.0,335.5 L 443.0,333.5 L 443.5,331.0 L 443.5,328.0 L 444.5,326.0 L 444.5,323.0 L 444.5,320.0 L 444.5,317.0 L 444.5,314.0 L 444.5,311.0 L 444.5,308.0 L 444.5,305.0 L 444.5,302.0 L 444.5,299.0 L 444.5,296.0 L 444.5,293.0 L 443.5,291.0 L 443.5,288.0 L 443.0,285.5 L 442.0,283.5 L 441.5,281.0 L 440.5,279.0 L 440.0,277.5 L 440.5,275.0 L 440.5,272.0 L 440.5,269.0 L 439.5,267.0 L 439.0,264.5 L 438.5,262.0 L 437.5,260.0 L 437.5,257.0 L 436.5,255.0 L 435.5,253.0 L 434.5,251.0 L 434.5,248.0 L 433.5,246.0 L 432.0,244.5 L 431.0,242.5 L 430.0,240.5 L 428.5,239.0 L 427.0,237.5 L 425.0,236.5 L 423.0,235.5 L 420.0,235.5 L 418.0,234.5 L 415.0,234.5 L 412.0,234.5 L 409.0,234.5 L 406.5,234.0 L 404.0,233.5 L 401.5,233.0 L 404.0,232.5 L 407.0,232.5 L 410.0,232.5 L 412.0,231.5 L 415.0,231.5 L 418.0,231.5 L 419.5,230.0 L 418.5,228.0 L 417.5,226.0 L 415.5,225.0 L 414.0,223.5 L 412.0,222.5 L 410.5,221.0 L 409.0,219.5 L 407.0,218.5 L 405.0,217.5 L 403.5,216.0 L 402.5,214.0 L 401.0,212.5 L 399.5,211.0 L 398.0,209.5 L 396.0,208.5 L 393.5,208.0 L 391.5,207.0 L 389.0,206.5 L 386.0,206.5 L 384.0,205.5 L 382.0,204.5 L 380.0,203.5 L 377.0,203.5 L 375.0,202.5 L 373.0,201.5 L 370.5,201.0 L 368.0,200.5 L 365.0,200.5 L 362.0,200.5 L 360.0,199.5 L 360.0,197.5 L 362.0,196.5 L 364.0,195.5 L 367.0,195.5 L 368.5,194.0 L 368.0,191.5 L 366.5,190.0 L 364.5,189.0 L 362.5,188.0 L 360.5,187.0 L 359.5,185.0 L 357.5,184.0 L 355.5,183.0 L 354.5,181.0 L 352.5,180.0 L 350.5,179.0 L 349.0,177.5 L 347.0,176.5 L 347.5,175.0 L 350.0,174.5 L 352.0,175.5 L 354.0,176.5 L 357.0,176.5 L 360.0,176.5 L 360.5,179.0 L 362.5,180.0 L 364.0,179.5 L 365.5,178.0 L 364.5,176.0 L 364.5,173.0 L 364.0,170.5 L 364.0,168.5 L 364.5,166.0 L 364.5,163.0 L 365.5,161.0 L 366.5,162.0 L 367.5,164.0 L 367.5,167.0 L 367.5,170.0 L 368.0,172.5 L 369.5,174.0 L 369.5,177.0 L 370.0,179.5 L 371.0,181.5 L 372.5,183.0 L 374.0,184.5 L 375.0,186.5 L 376.5,185.0 L 376.5,182.0 L 377.0,179.5 L 377.5,177.0 L 377.5,174.0 L 378.5,175.0 L 379.0,177.5 L 379.5,180.0 L 379.5,183.0 L 379.5,186.0 L 380.5,188.0 L 381.5,190.0 L 382.5,192.0 L 384.0,193.5 L 385.0,195.5 L 386.5,197.0 L 388.0,198.5 L 389.5,200.0 L 391.0,201.5 L 393.0,202.5 L 395.0,203.5 L 396.0,205.5 L 398.0,206.5 L 400.0,207.5 L 402.0,208.5 L 404.0,209.5 L 405.5,211.0 L 407.0,212.5 L 409.0,213.5 L 410.5,215.0 L 412.5,216.0 L 414.0,217.5 L 416.0,218.5 L 417.5,220.0 L 419.0,221.5 L 421.0,222.5 L 422.5,224.0 L 424.0,225.5 L 425.5,224.0 L 424.5,222.0 L 422.5,221.0 L 422.0,218.5 L 421.0,216.5 L 419.5,215.0 L 418.5,213.0 L 418.0,210.5 L 417.0,208.5 L 416.0,206.5 L 415.0,204.5 L 414.0,202.5 L 413.0,200.5 L 412.5,198.0 L 411.5,196.0 L 410.5,194.0 L 409.5,192.0 L 408.5,190.0 L 407.5,188.0 L 406.5,186.0 L 405.5,184.0 L 404.5,182.0 L 403.5,180.0 L 402.5,178.0 L 402.5,175.0 L 401.5,173.0 L 400.0,171.5 L 399.5,169.0 L 398.5,167.0 L 398.0,164.5 L 397.0,162.5 L 396.5,160.0 L 395.5,158.0 L 394.5,156.0 L 393.5,154.0 L 393.0,151.5 L 392.5,149.0 L 391.0,147.5 L 390.5,145.0 L 389.5,143.0 L 388.5,141.0 L 387.5,139.0 L 386.5,137.0 L 386.0,134.5 L 384.5,133.0 L 383.5,131.0 L 383.5,128.0 L 382.5,126.0 L 382.0,123.5 L 380.5,122.0 L 380.0,119.5 L 379.5,117.0 L 378.0,115.5 L 376.5,114.0 L 375.0,112.5 L 373.0,111.5 L 371.5,110.0 L 372.5,109.0 L 374.0,110.5 L 376.5,110.0 L 376.5,107.0 L 376.0,104.5 L 374.5,103.0 L 373.5,101.0 L 372.0,99.5 L 370.5,98.0 L 373.0,97.5 L 375.0,96.5 L 375.0,94.5 L 374.5,92.0 L 373.5,90.0 L 373.0,87.5 L 371.0,86.5 L 369.0,85.5 L 368.0,83.5 L 367.0,81.5 L 365.5,80.0 L 364.5,78.0 L 363.5,76.0 L 362.0,74.5 L 361.5,72.0 L 360.5,70.0 L 359.0,68.5 L 358.5,66.0 L 358.5,63.0 L 360.0,63.5 L 360.5,66.0 L 361.5,68.0 L 363.5,69.0 L 364.5,71.0 L 365.5,73.0 L 366.5,75.0 L 367.5,77.0 L 369.0,78.5 L 370.5,80.0 L 371.5,82.0 L 372.5,83.0 L 373.5,81.0 L 373.5,78.0 L 374.5,76.0 L 374.5,73.0 L 375.0,70.5 L 375.5,68.0 L 377.0,66.5 L 379.0,67.5 L 379.5,70.0 L 380.5,72.0 L 380.5,75.0 L 380.5,78.0 L 380.5,81.0 L 380.5,84.0 L 381.5,86.0 L 381.5,89.0 L 381.5,92.0 L 382.5,93.0 L 383.5,91.0 L 385.0,89.5 L 385.5,87.0 L 387.0,85.5 L 388.5,84.0 L 389.5,82.0 L 391.0,80.5 L 392.5,79.0 L 393.5,77.0 L 395.0,75.5 L 395.5,78.0 L 395.5,81.0 L 394.0,82.5 L 393.5,85.0 L 392.5,87.0 L 391.0,88.5 L 390.0,90.5 L 388.5,92.0 L 387.5,94.0 L 386.5,96.0 L 385.0,97.5 L 383.5,99.0 L 383.0,101.5 L 382.5,104.0 L 382.5,107.0 L 383.5,109.0 L 383.5,112.0 L 384.0,114.5 L 384.5,117.0 L 385.0,119.5 L 386.0,121.5 L 386.5,124.0 L 386.5,127.0 L 387.5,129.0 L 388.5,131.0 L 389.5,133.0 L 390.0,135.5 L 390.5,138.0 L 391.5,140.0 L 392.5,142.0 L 393.5,144.0 L 394.0,146.5 L 395.5,148.0 L 396.5,150.0 L 397.5,152.0 L 399.0,151.5 L 399.5,149.0 L 400.5,147.0 L 400.5,144.0 L 401.0,141.5 L 402.5,141.0 L 402.5,144.0 L 402.5,147.0 L 402.5,150.0 L 402.5,153.0 L 402.5,156.0 L 403.5,158.0 L 403.5,161.0 L 404.0,163.5 L 404.5,166.0 L 405.5,168.0 L 406.0,170.5 L 406.5,173.0 L 406.5,176.0 L 408.0,177.5 L 409.0,179.5 L 409.5,182.0 L 410.5,184.0 L 411.5,186.0 L 412.5,188.0 L 413.0,190.5 L 414.0,192.5 L 415.5,194.0 L 415.5,197.0 L 417.0,198.5 L 418.5,200.0 L 419.0,202.5 L 420.0,204.5 L 421.5,206.0 L 422.5,208.0 L 423.5,210.0 L 424.5,212.0 L 425.5,214.0 L 425.5,217.0 L 426.5,219.0 L 428.5,220.0 L 429.5,222.0 L 430.5,223.0 L 430.5,220.0 L 429.5,218.0 L 428.5,216.0 L 428.5,213.0 L 428.5,210.0 L 428.5,207.0 L 429.0,204.5 L 429.5,202.0 L 430.5,201.0 L 431.0,203.5 L 431.5,206.0 L 432.5,208.0 L 433.0,210.5 L 433.5,213.0 L 434.5,215.0 L 434.5,218.0 L 434.5,221.0 L 434.5,224.0 L 436.0,225.5 L 438.0,224.5 L 438.5,222.0 L 440.0,220.5 L 440.5,223.0 L 440.5,226.0 L 440.5,229.0 L 439.5,231.0 L 438.5,233.0 L 438.5,236.0 L 438.5,239.0 L 438.5,242.0 L 438.5,245.0 L 439.5,247.0 L 440.5,249.0 L 441.5,251.0 L 441.5,254.0 L 442.5,256.0 L 443.0,258.5 L 444.0,260.5 L 444.5,263.0 L 444.5,266.0 L 445.5,268.0 L 445.5,271.0 L 446.5,273.0 L 446.5,276.0 L 447.5,278.0 L 447.5,281.0 L 448.0,283.5 L 448.5,286.0 L 448.5,289.0 L 449.5,291.0 L 449.5,294.0 L 449.5,297.0 L 449.5,300.0 L 450.5,302.0 L 450.5,305.0 L 450.5,308.0 L 450.5,311.0 L 450.5,314.0 L 450.5,317.0 L 450.5,320.0 L 450.5,323.0 L 450.5,326.0 L 451.5,328.0 L 453.5,328.0 L 454.5,326.0 L 456.0,324.5 L 457.5,323.0 L 458.5,321.0 L 460.0,319.5 L 460.5,317.0 L 462.0,315.5 L 463.5,314.0 L 464.5,312.0 L 465.5,310.0 L 467.0,308.5 L 468.5,307.0 L 470.0,305.5 L 471.5,304.0 L 473.0,302.5 L 474.5,301.0 L 476.0,299.5 L 477.0,297.5 L 478.5,296.0 L 479.5,294.0 L 480.5,292.0 L 481.5,290.0 L 480.5,288.0 L 479.5,286.0 L 478.5,284.0 L 477.5,282.0 L 477.0,279.5 L 476.5,277.0 L 477.5,275.0 L 478.5,276.0 L 480.0,277.5 L 481.0,279.5 L 482.0,281.5 L 482.5,284.0 L 483.5,286.0 L 484.0,288.5 L 485.5,287.0 L 486.5,285.0 L 487.5,283.0 L 488.5,281.0 L 488.5,278.0 L 489.5,276.0 L 489.5,273.0 L 490.5,271.0 L 490.5,268.0 L 491.5,266.0 L 491.5,263.0 L 490.5,261.0 L 489.0,259.5 L 488.5,257.0 L 488.0,255.5 L 490.0,254.5 L 493.0,254.5 L 494.5,253.0 L 495.5,251.0 L 496.5,249.0 L 496.0,246.5 L 496.5,245.0 L 496.0,242.5 L 494.0,241.5 L 493.0,239.5 L 492.0,237.5 L 490.5,237.0 L 489.0,238.5 L 487.0,239.5 L 486.0,241.5 L 485.5,244.0 L 484.0,245.5 L 482.5,247.0 L 482.0,249.5 L 480.5,250.0 L 479.5,248.0 L 480.0,245.5 L 481.5,244.0 L 482.5,242.0 L 483.5,240.0 L 484.5,238.0 L 485.5,236.0 L 486.5,234.0 L 488.0,232.5 L 489.5,231.0 L 491.0,229.5 L 493.5,230.0 L 495.0,231.5 L 496.0,233.5 L 495.5,235.0 L 496.5,237.0 L 497.0,239.5 L 497.5,242.0 L 498.5,244.0 L 498.5,247.0 L 498.5,250.0 L 498.5,253.0 L 498.5,256.0 L 498.0,258.5 L 497.0,260.5 L 496.5,263.0 L 496.0,265.5 L 495.5,268.0 L 495.5,271.0 L 494.5,273.0 L 493.5,275.0 L 493.5,278.0 L 494.5,279.0 L 495.5,277.0 L 497.5,276.0 L 498.5,274.0 L 499.5,272.0 L 501.0,270.5 L 502.5,269.0 L 503.0,266.5 L 505.0,265.5 L 506.0,263.5 L 507.0,261.5 L 507.5,264.0 L 507.0,266.5 L 505.5,268.0 L 506.5,270.0 L 509.0,270.5 L 511.0,269.5 L 512.5,268.0 L 515.0,267.5 L 517.0,266.5 L 517.0,268.5 L 515.5,270.0 L 514.0,271.5 L 512.5,273.0 L 511.0,274.5 L 510.5,277.0 L 510.0,278.5 L 511.5,280.0 L 514.0,280.5 L 513.5,282.0 L 511.0,282.5 L 508.0,282.5 L 505.0,282.5 L 503.0,283.5 L 501.0,284.5 L 499.0,285.5 L 497.0,286.5 L 495.5,288.0 L 494.0,289.5 L 492.0,290.5 L 490.5,292.0 L 488.5,293.0 L 486.5,294.0 L 487.0,296.5 L 490.0,296.5 L 493.0,296.5 L 496.0,296.5 L 499.0,296.5 L 501.5,296.0 L 504.0,295.5 L 506.0,296.5 L 507.5,298.0 L 506.0,299.5 L 504.0,300.5 L 502.0,301.5 L 499.0,301.5 L 496.0,301.5 L 493.5,302.0 L 491.0,302.5 L 488.0,302.5 L 485.0,302.5 L 482.0,302.5 L 480.0,303.5 L 478.0,304.5 L 476.0,305.5 L 474.0,306.5 L 472.5,308.0 L 471.0,309.5 L 469.5,311.0 L 468.0,312.5 L 467.5,315.0 L 466.5,317.0 L 465.0,318.5 L 464.0,320.5 L 463.0,322.5 L 461.5,324.0 L 460.5,326.0 L 459.0,327.5 L 457.5,329.0 L 456.0,330.5 L 454.5,332.0 L 453.5,334.0 L 452.5,336.0 L 451.0,337.5 L 450.0,339.5 L 448.5,341.0 L 448.5,344.0 L 447.5,346.0 L 446.0,347.5 L 445.5,350.0 L 444.5,352.0 L 444.0,354.5 L 443.5,357.0 L 442.5,359.0 L 441.5,361.0 L 441.5,364.0 L 440.5,366.0 L 439.0,367.5 L 438.5,370.0 L 438.0,372.5 L 437.0,374.5 L 435.5,376.0 L 435.5,379.0 L 434.5,381.0 L 433.5,383.0 L 432.5,385.0 L 431.5,387.0 L 430.5,389.0 L 429.0,390.5 L 428.5,393.0 L 427.5,395.0 L 426.5,397.0 L 425.5,399.0 L 424.5,401.0 L 423.0,402.5 L 422.5,405.0 L 421.0,406.5 L 420.0,408.5 L 419.0,410.5 L 418.0,412.5 L 416.5,414.0 L 415.5,416.0 L 414.0,417.5 L 412.5,419.0 L 411.5,421.0 L 410.0,422.5 L 409.0,424.5 L 407.5,426.0 L 406.5,428.0 L 405.5,430.0 L 403.5,431.0 L 402.5,433.0 L 401.0,434.5 L 399.5,436.0 L 398.0,437.5 L 397.5,440.0 L 400.0,440.5 L 402.0,439.5 L 405.0,439.5 L 408.0,439.5 L 410.0,438.5 L 413.0,438.5 L 415.0,437.5 L 418.0,437.5 L 420.0,436.5 L 423.0,436.5 L 425.0,435.5 L 427.0,434.5 L 430.0,434.5 L 431.5,433.0 L 433.5,432.0 L 435.0,430.5 L 436.5,429.0 L 437.5,427.0 L 438.0,424.5 L 438.5,422.0 L 439.5,420.0 L 440.5,418.0 L 441.5,416.0 L 443.0,414.5 L 444.5,413.0 L 445.0,410.5 L 446.0,408.5 L 447.5,410.0 L 447.5,413.0 L 446.5,415.0 L 445.5,417.0 L 444.5,419.0 L 444.5,422.0 L 446.0,423.5 L 447.5,422.0 L 449.0,420.5 L 450.5,419.0 L 452.0,417.5 L 453.5,416.0 L 455.0,414.5 L 457.0,413.5 L 458.5,412.0 L 461.0,411.5 L 462.0,409.5 L 463.0,410.5 L 462.5,413.0 L 461.0,414.5 L 460.0,416.5 L 458.5,418.0 L 457.5,420.0 L 456.0,421.5 L 454.5,423.0 L 453.0,424.5 L 451.5,426.0 L 454.0,426.5 L 457.0,426.5 L 459.0,425.5 L 462.0,425.5 L 464.0,424.5 L 466.0,423.5 L 468.0,422.5 L 470.0,421.5 L 472.0,420.5 L 474.5,420.0 L 476.0,418.5 L 479.0,418.5 L 481.0,417.5 L 482.5,416.0 L 484.5,415.0 L 486.0,413.5 L 487.5,412.0 L 489.0,410.5 L 490.5,409.0 L 492.5,409.0 L 492.5,412.0 L 494.0,413.5 L 496.0,412.5 L 498.0,411.5 L 500.0,410.5 L 502.0,409.5 L 504.0,408.5 L 505.5,407.0 L 507.0,405.5 L 509.0,404.5 L 511.0,403.5 L 513.5,403.0 L 516.0,402.5 L 516.0,404.5 L 514.5,406.0 L 513.5,408.0 L 512.5,410.0 L 511.0,411.5 L 509.0,412.5 L 506.5,413.0 L 504.5,414.0 L 502.0,414.5 L 500.0,415.5 L 498.0,416.5 L 496.0,417.5 L 494.0,418.5 L 492.0,419.5 L 490.0,420.5 L 487.0,420.5 L 485.0,421.5 L 483.0,422.5 L 481.0,423.5 L 478.5,424.0 L 476.0,424.5 L 474.0,425.5 L 472.0,426.5 L 469.5,427.0 L 467.0,427.5 L 465.5,429.0 L 464.0,430.5 L 462.0,431.5 L 460.0,432.5 L 457.0,432.5 L 455.0,433.5 L 452.0,433.5 L 450.0,434.5 L 447.0,434.5 L 445.0,435.5 L 442.5,436.0 L 441.5,438.0 L 442.0,440.5 L 444.0,441.5 L 445.0,443.5 L 447.5,444.0 L 449.5,445.0 L 451.0,446.5 L 453.0,447.5 L 454.5,449.0 L 452.0,449.5 L 450.0,448.5 L 448.5,447.0 L 446.0,446.5 L 444.5,445.0 L 443.0,443.5 L 441.0,442.5 L 438.5,442.0 L 437.0,440.5 L 435.0,439.5 L 433.0,438.5 L 430.5,439.0 L 428.0,439.5 L 426.0,440.5 L 423.0,440.5 L 421.5,442.0 L 419.0,442.5 L 417.0,443.5 L 414.0,443.5 L 411.0,443.5 L 409.0,444.5 L 407.0,445.5 L 404.5,446.0 L 402.0,446.5 L 400.0,447.5 L 397.0,447.5 L 395.0,448.5 L 393.0,449.5 L 390.5,450.0 L 388.0,450.5 L 386.5,452.0 L 385.5,454.0 L 384.5,456.0 L 382.0,456.5 L 380.0,457.5 L 378.5,459.0 L 376.5,460.0 L 374.5,461.0 L 373.0,462.5 L 371.5,464.0 L 370.0,465.5 L 368.0,466.5 L 366.5,468.0 L 364.5,469.0 L 363.0,470.5 L 361.0,471.5 L 359.0,472.5 L 357.5,474.0 L 356.0,475.5 L 354.5,477.0 L 353.0,478.5 L 351.5,480.0 L 350.0,481.5 L 348.0,482.5 L 346.5,484.0 L 345.0,485.5 L 343.0,486.5 L 341.5,488.0 L 339.5,489.0 L 338.0,490.5 L 336.5,492.0 L 335.0,493.5 L 333.0,494.5 L 331.5,496.0 L 330.0,497.5 L 328.0,498.5 L 326.5,500.0 L 325.0,501.5 L 323.5,503.0 L 322.5,505.0 L 321.0,506.5 L 319.5,508.0 L 318.5,510.0 L 317.0,511.5 L 316.0,513.5 L 314.5,515.0 L 313.5,517.0 L 312.0,518.5 L 310.5,520.0 L 309.5,522.0 L 308.0,523.5 L 306.5,525.0 L 305.5,527.0 L 304.0,528.5 L 303.0,530.5 L 301.5,532.0 L 300.5,534.0 L 299.0,535.5 L 297.5,537.0 L 296.5,539.0 L 295.5,541.0 L 294.0,542.5 L 293.5,545.0 L 295.0,546.5 L 297.0,545.5 L 299.5,545.0 L 301.5,544.0 L 303.5,543.0 L 306.0,542.5 L 308.0,541.5 L 310.5,541.0 L 313.0,540.5 L 315.0,539.5 L 318.0,539.5 L 320.0,538.5 L 322.0,537.5 L 324.5,537.0 L 327.0,536.5 L 329.5,536.0 L 332.0,535.5 L 334.0,534.5 L 336.0,533.5 L 338.5,533.0 L 341.0,532.5 L 342.5,531.0 L 344.0,529.5 L 346.0,528.5 L 348.0,527.5 L 349.5,526.0 L 351.0,524.5 L 352.0,522.5 L 353.5,521.0 L 354.5,519.0 L 356.0,517.5 L 357.5,516.0 L 359.0,514.5 L 360.5,513.0 L 362.0,511.5 L 363.5,511.0 L 363.0,513.5 L 361.0,514.5 L 360.5,517.0 L 359.0,518.5 L 358.0,520.5 L 357.5,523.0 L 356.0,524.5 L 356.0,526.5 L 359.0,526.5 L 361.0,525.5 L 363.0,524.5 L 366.0,524.5 L 369.0,524.5 L 372.0,524.5 L 375.0,524.5 L 377.5,524.0 L 380.0,523.5 L 380.0,525.5 L 377.0,525.5 L 375.0,526.5 L 372.0,526.5 L 370.0,527.5 L 368.0,528.5 L 366.0,529.5 L 364.0,530.5 L 362.0,531.5 L 361.0,532.5 L 363.0,533.5 L 366.0,533.5 L 369.0,533.5 L 372.0,533.5 L 375.0,533.5 L 378.0,533.5 L 381.0,533.5 L 383.0,532.5 L 386.0,532.5 L 389.0,532.5 L 392.0,532.5 L 394.0,531.5 L 397.0,531.5 L 399.0,530.5 L 402.0,530.5 L 404.0,529.5 L 407.0,529.5 L 410.0,529.5 L 413.0,529.5 L 416.0,529.5 L 419.0,529.5 L 421.5,530.0 L 424.0,530.5 L 427.0,530.5 L 430.0,530.5 L 433.0,530.5 L 435.0,531.5 L 437.5,532.0 L 435.0,532.5 L 432.0,532.5 L 429.0,532.5 L 426.0,532.5 L 423.0,532.5 L 420.0,532.5 L 417.0,532.5 L 414.5,533.0 L 412.0,533.5 L 409.0,533.5 L 407.0,534.5 L 405.5,536.0 L 407.0,537.5 L 409.0,538.5 L 411.5,539.0 L 414.0,539.5 L 417.0,539.5 L 419.0,540.5 L 420.5,542.0 L 422.0,543.5 L 425.0,543.5 L 427.0,544.5 L 426.0,545.5 L 423.0,545.5 L 420.0,545.5 L 418.0,544.5 L 415.0,544.5 L 413.0,543.5 L 410.0,543.5 L 408.0,542.5 L 405.0,542.5 L 403.0,543.5 L 402.0,545.5 L 400.0,544.5 L 398.0,543.5 L 396.0,542.5 L 394.0,541.5 L 392.0,540.5 L 390.0,539.5 L 387.0,539.5 L 384.0,539.5 L 381.0,539.5 L 379.0,538.5 L 376.0,538.5 L 373.0,538.5 L 370.0,538.5 L 367.0,538.5 L 364.0,538.5 L 361.5,539.0 L 362.0,541.5 L 364.0,542.5 L 366.0,543.5 L 368.0,544.5 L 370.0,545.5 L 372.0,546.5 L 374.0,547.5 L 375.5,549.0 L 377.5,550.0 L 378.5,552.0 L 381.0,552.5 L 383.0,553.5 L 383.0,555.5 L 380.5,555.0 L 378.5,554.0 L 377.0,552.5 L 374.0,552.5 L 372.0,551.5 L 370.0,550.5 L 368.0,549.5 L 365.5,549.0 L 363.5,548.0 L 361.0,547.5 L 361.0,549.5 L 361.5,552.0 L 362.5,554.0 L 363.5,556.0 L 364.5,558.0 L 365.5,560.0 L 367.0,561.5 L 367.5,564.0 L 369.0,565.5 L 370.5,567.0 L 371.5,569.0 L 373.0,570.5 L 374.0,572.5 L 376.0,573.5 L 377.0,575.5 L 379.5,576.0 L 380.0,577.5 L 377.0,577.5 L 375.0,576.5 L 373.5,575.0 L 371.5,574.0 L 370.0,572.5 L 368.5,571.0 L 367.0,569.5 L 365.5,568.0 L 364.5,566.0 L 363.5,564.0 L 362.5,562.0 L 361.5,560.0 L 360.5,558.0 L 359.5,556.0 L 358.5,554.0 L 357.0,552.5 L 355.5,551.0 L 354.5,549.0 L 353.0,547.5 L 351.5,546.0 L 350.0,544.5 L 348.0,543.5 L 346.0,542.5 L 344.5,541.0 L 342.0,540.5 L 340.0,539.5 L 338.0,540.5 L 335.0,540.5 L 332.0,540.5 L 330.0,541.5 L 328.0,542.5 L 325.0,542.5 L 323.0,543.5 L 320.0,543.5 L 318.0,544.5 L 315.5,545.0 L 313.0,545.5 L 311.0,546.5 L 308.0,546.5 L 306.0,547.5 L 304.0,548.5 L 302.0,549.5 L 300.0,550.5 L 298.5,552.0 L 300.0,553.5 L 303.0,553.5 L 305.0,552.5 L 307.0,553.5 L 307.0,555.5 L 305.0,556.5 L 303.0,555.5 L 300.0,555.5 L 298.0,554.5 L 296.0,553.5 L 294.0,554.5 L 292.0,555.5 L 289.0,555.5 L 287.0,556.5 L 285.0,557.5 L 283.5,559.0 L 281.5,560.0 L 280.0,561.5 L 278.5,563.0 L 277.0,564.5 L 275.5,566.0 L 274.0,567.5 L 272.5,569.0 L 271.5,571.0 L 270.0,572.5 L 268.5,574.0 L 268.0,576.5 L 267.5,579.0 L 266.5,581.0 L 265.5,583.0 L 265.5,586.0 L 264.5,588.0 L 264.5,591.0 L 263.5,593.0 L 263.5,596.0 L 262.5,598.0 L 262.5,601.0 L 261.5,603.0 L 261.5,606.0 L 260.5,608.0 L 259.5,610.0 L 258.5,612.0 L 257.5,614.0 L 257.0,616.5 L 255.5,618.0 L 255.5,621.0 L 254.5,623.0 L 254.5,626.0 L 253.5,628.0 L 252.5,630.0 L 252.5,633.0 L 252.5,636.0 L 254.5,636.0 L 255.5,634.0 L 257.0,632.5 L 258.5,631.0 L 259.5,629.0 L 261.0,627.5 L 262.5,626.0 L 264.0,624.5 L 264.5,627.0 L 263.5,629.0 L 262.0,630.5 L 261.5,633.0 L 260.5,635.0 L 259.5,637.0 L 260.0,639.5 L 261.5,641.0 L 259.5,642.0 L 258.0,643.5 L 256.5,645.0 L 255.0,646.5 L 253.5,648.0 L 252.0,649.5 L 252.0,651.5 L 254.5,652.0 L 257.0,652.5 L 258.0,653.5 L 256.0,654.5 L 254.0,655.5 L 252.0,656.5 L 250.5,658.0 L 248.5,659.0 L 246.5,660.0 L 245.0,661.5 L 243.0,662.5 L 241.0,663.5 L 239.5,665.0 L 237.0,665.5 L 235.5,667.0 L 234.0,668.5 L 232.0,669.5 L 230.5,671.0 L 228.5,672.0 L 227.0,673.5 L 225.5,675.0 L 223.5,676.0 L 222.5,678.0 L 221.0,679.5 L 219.5,681.0 L 218.0,682.5 L 216.5,684.0 L 215.5,686.0 L 214.5,688.0 L 213.5,690.0 L 212.0,691.5 L 211.5,694.0 L 212.5,695.0 L 213.5,693.0 L 215.5,692.0 L 216.5,690.0 L 218.5,689.0 L 220.0,687.5 L 221.5,686.0 L 223.0,684.5 L 225.0,683.5 L 226.5,682.0 L 228.0,680.5 L 230.0,679.5 L 232.0,678.5 L 234.0,677.5 L 236.5,678.0 L 237.0,679.5 L 235.0,680.5 L 233.5,682.0 L 232.0,683.5 L 230.0,684.5 L 228.0,685.5 L 228.5,687.0 L 231.0,687.5 L 233.5,687.0 L 236.0,686.5 L 238.0,685.5 L 241.0,685.5 L 241.0,687.5 L 240.0,689.5 L 238.0,690.5 L 236.0,691.5 L 234.0,692.5 L 231.0,692.5 L 229.0,693.5 L 226.0,693.5 L 224.0,694.5 L 222.5,696.0 L 220.5,697.0 L 218.5,698.0 L 217.0,699.5 L 215.0,700.5 L 213.0,701.5 L 211.5,703.0 L 209.0,703.5 L 207.0,704.5 L 205.5,706.0 L 204.0,707.5 L 203.5,710.0 L 202.5,712.0 L 201.5,714.0 L 200.0,715.5" fill="none" stroke="#dcc8a8" stroke-width="1"/><path d="M 440.0,109.5 L 437.5,109.0 L 437.0,107.5 L 439.0,106.5 L 440.5,105.0 L 442.5,104.0 L 444.5,103.0 L 446.5,102.0 L 447.5,100.0 L 448.5,98.0 L 450.0,96.5 L 451.0,94.5 L 451.5,92.0 L 451.5,89.0 L 452.5,87.0 L 453.0,84.5 L 453.5,82.0 L 454.5,80.0 L 453.5,78.0 L 452.0,76.5 L 450.5,78.0 L 448.5,79.0 L 447.0,80.5 L 444.5,80.0 L 444.5,77.0 L 445.5,75.0 L 447.0,73.5 L 446.5,72.0 L 444.5,71.0 L 442.0,70.5 L 439.5,70.0 L 442.0,69.5 L 444.0,68.5 L 446.0,67.5 L 448.5,67.0 L 451.0,66.5 L 454.0,66.5 L 456.5,66.0 L 459.0,65.5 L 460.5,67.0 L 461.5,69.0 L 460.5,71.0 L 460.0,73.5 L 458.5,75.0 L 457.5,77.0 L 456.5,79.0 L 456.5,82.0 L 456.5,85.0 L 455.0,86.5 L 454.0,88.5 L 454.0,90.5 L 454.0,92.5 L 453.5,95.0 L 453.5,98.0 L 452.0,99.5 L 451.0,101.5 L 449.5,103.0 L 448.0,104.5 L 446.5,106.0 L 444.5,107.0 L 443.0,108.5 L 440.5,109.0" fill="none" stroke="#dcc8a8" stroke-width="1"/><path d="M 423.0,79.5 L 423.0,77.5 L 424.0,75.5 L 425.5,74.0 L 426.5,72.0 L 429.0,71.5 L 431.5,72.0 L 432.0,73.5 L 429.5,74.0 L 427.5,75.0 L 426.0,76.5 L 424.5,78.0 L 423.0,79.5" fill="none" stroke="#dcc8a8" stroke-width="1"/><path d="M 350.0,100.5 L 347.0,100.5 L 344.5,100.0 L 342.5,99.0 L 341.5,97.0 L 340.0,95.5 L 339.0,93.5 L 338.5,91.0 L 339.0,88.5 L 340.0,86.5 L 341.5,85.0 L 343.0,83.5 L 345.0,82.5 L 347.0,81.5 L 349.0,82.5 L 351.0,83.5 L 354.0,83.5 L 356.0,84.5 L 358.0,85.5 L 360.0,86.5 L 362.0,87.5 L 363.5,89.0 L 365.0,90.5 L 366.5,92.0 L 367.5,94.0 L 370.0,94.5 L 370.5,97.0 L 368.5,97.0 L 366.5,96.0 L 365.0,94.5 L 363.0,93.5 L 361.0,92.5 L 359.5,91.0 L 357.0,90.5 L 355.0,89.5 L 353.0,88.5 L 350.0,88.5 L 347.0,88.5 L 345.5,90.0 L 345.5,93.0 L 346.5,95.0 L 349.0,95.5 L 351.0,96.5 L 352.5,98.0 L 351.0,99.5" fill="none" stroke="#dcc8a8" stroke-width="1"/><path d="M 407.0,126.5 L 406.0,124.5 L 406.5,123.0 L 406.5,120.0 L 407.5,118.0 L 409.5,117.0 L 409.5,114.0 L 410.5,112.0 L 412.0,110.5 L 412.5,108.0 L 412.5,105.0 L 411.5,103.0 L 410.5,101.0 L 409.5,99.0 L 410.5,97.0 L 411.5,95.0 L 412.5,93.0 L 413.5,91.0 L 414.0,88.5 L 415.5,90.0 L 414.5,92.0 L 414.5,95.0 L 415.5,97.0 L 416.5,99.0 L 417.5,100.0 L 418.5,98.0 L 419.5,96.0 L 421.0,94.5 L 422.5,93.0 L 424.0,91.5 L 425.5,90.0 L 427.5,89.0 L 430.0,88.5 L 430.0,90.5 L 428.5,92.0 L 427.0,93.5 L 425.5,95.0 L 425.0,97.5 L 424.0,99.5 L 422.5,101.0 L 421.0,102.5 L 419.5,104.0 L 419.0,105.5 L 420.0,107.5 L 421.0,108.5 L 419.0,109.5 L 416.0,109.5 L 414.5,111.0 L 413.0,112.5 L 412.0,114.5 L 411.5,117.0 L 410.0,118.5 L 409.0,120.5 L 408.5,123.0 L 408.0,125.5" fill="none" stroke="#dcc8a8" stroke-width="1"/><path d="M 404.0,138.5 L 403.5,136.0 L 403.5,133.0 L 403.5,130.0 L 404.0,127.5 L 405.5,129.0 L 405.5,132.0 L 405.5,135.0 L 404.5,137.0" fill="none" stroke="#dcc8a8" stroke-width="1"/><path d="M 376.0,164.5 L 375.0,162.5 L 374.0,160.5 L 372.5,159.0 L 370.0,158.5 L 368.0,157.5 L 367.5,155.0 L 367.0,152.5 L 364.5,152.0 L 362.5,151.0 L 360.0,150.5 L 358.5,149.0 L 356.0,148.5 L 354.0,147.5 L 352.5,146.0 L 353.0,143.5 L 356.0,143.5 L 357.5,145.0 L 360.0,145.5 L 362.0,144.5 L 364.0,145.5 L 366.0,146.5 L 367.5,148.0 L 369.0,149.5 L 370.0,151.5 L 372.0,152.5 L 374.0,153.5 L 376.0,154.5 L 377.0,156.5 L 377.5,159.0 L 377.5,162.0 L 376.5,164.0" fill="none" stroke="#dcc8a8" stroke-width="1"/><path d="M 316.0,166.5 L 314.0,165.5 L 313.0,163.5 L 312.5,161.0 L 310.5,160.0 L 309.5,158.0 L 307.5,157.0 L 306.5,155.0 L 305.5,153.0 L 306.5,151.0 L 308.0,149.5 L 310.0,148.5 L 312.0,147.5 L 315.0,147.5 L 318.0,147.5 L 320.0,148.5 L 322.0,149.5 L 324.5,150.0 L 326.0,151.5 L 329.0,151.5 L 332.0,151.5 L 334.0,152.5 L 335.0,153.5 L 333.0,154.5 L 331.0,155.5 L 329.0,154.5 L 326.0,154.5 L 324.0,153.5 L 323.0,151.5 L 320.0,151.5 L 317.0,151.5 L 314.5,152.0 L 313.0,153.5 L 312.5,156.0 L 313.0,158.5 L 314.0,160.5 L 315.5,162.0 L 316.5,164.0 L 316.0,166.5" fill="none" stroke="#dcc8a8" stroke-width="1"/><path d="M 440.0,178.5 L 438.5,177.0 L 437.5,175.0 L 436.5,173.0 L 435.5,171.0 L 435.5,168.0 L 434.5,166.0 L 434.5,163.0 L 434.5,160.0 L 432.0,159.5 L 431.0,161.5 L 430.0,163.5 L 429.0,161.5 L 429.0,159.5 L 429.5,157.0 L 430.5,155.0 L 431.0,152.5 L 432.0,150.5 L 433.5,150.0 L 435.5,151.0 L 436.5,153.0 L 437.0,155.5 L 437.5,158.0 L 437.5,161.0 L 437.5,164.0 L 438.5,166.0 L 438.5,169.0 L 439.0,171.5 L 440.0,173.5 L 440.5,176.0 L 440.0,178.5" fill="none" stroke="#dcc8a8" stroke-width="1"/><path d="M 359.0,173.5 L 358.5,171.0 L 358.5,168.0 L 358.5,165.0 L 359.0,162.5 L 359.5,165.0 L 360.5,167.0 L 360.5,170.0 L 360.0,172.5" fill="none" stroke="#dcc8a8" stroke-width="1"/><path d="M 427.0,172.5 L 426.0,170.5 L 426.0,168.5 L 426.5,166.0 L 427.5,165.0 L 427.5,168.0 L 427.5,171.0" fill="none" stroke="#dcc8a8" stroke-width="1"/><path d="M 325.0,186.5 L 323.0,185.5 L 321.0,184.5 L 319.5,183.0 L 318.5,181.0 L 318.0,178.5 L 317.5,176.0 L 316.5,174.0 L 316.5,171.0 L 316.5,168.0 L 317.5,167.0 L 318.5,169.0 L 319.0,171.5 L 320.0,173.5 L 321.5,175.0 L 322.5,177.0 L 323.5,179.0 L 325.0,180.5 L 325.5,183.0 L 326.5,185.0 L 325.0,186.5" fill="none" stroke="#dcc8a8" stroke-width="1"/><path d="M 261.0,269.5 L 259.5,268.0 L 258.5,266.0 L 258.0,263.5 L 256.0,262.5 L 255.5,260.0 L 254.5,258.0 L 253.5,256.0 L 252.5,254.0 L 252.5,251.0 L 252.0,248.5 L 251.5,246.0 L 250.5,244.0 L 250.0,241.5 L 249.5,239.0 L 249.0,236.5 L 248.5,234.0 L 248.5,231.0 L 248.5,228.0 L 248.5,225.0 L 249.5,223.0 L 249.5,220.0 L 249.5,217.0 L 250.5,215.0 L 250.5,212.0 L 250.5,209.0 L 250.5,206.0 L 250.5,203.0 L 251.0,200.5 L 251.5,198.0 L 251.5,195.0 L 251.5,192.0 L 251.5,189.0 L 251.5,186.0 L 251.5,183.0 L 254.0,182.5 L 257.0,182.5 L 258.5,184.0 L 258.5,187.0 L 259.0,189.5 L 259.5,192.0 L 260.5,194.0 L 261.5,196.0 L 261.5,199.0 L 263.0,200.5 L 263.5,203.0 L 262.0,204.5 L 261.5,207.0 L 261.5,210.0 L 261.5,213.0 L 262.5,215.0 L 263.5,217.0 L 264.0,219.5 L 264.5,222.0 L 265.0,224.5 L 265.5,227.0 L 266.5,229.0 L 267.5,231.0 L 267.5,234.0 L 268.5,236.0 L 269.0,238.5 L 270.5,240.0 L 270.5,243.0 L 271.5,245.0 L 272.0,247.5 L 273.5,249.0 L 274.0,251.5 L 274.5,254.0 L 273.0,255.5 L 272.0,253.5 L 271.5,251.0 L 270.5,249.0 L 269.0,247.5 L 268.5,245.0 L 267.5,243.0 L 266.5,241.0 L 265.5,239.0 L 264.5,237.0 L 264.0,234.5 L 263.0,232.5 L 262.0,230.5 L 261.5,228.0 L 261.5,225.0 L 260.5,223.0 L 259.5,221.0 L 259.0,218.5 L 258.5,216.0 L 258.5,213.0 L 258.5,210.0 L 257.5,208.0 L 256.5,207.0 L 256.0,209.5 L 255.5,212.0 L 255.5,215.0 L 255.5,218.0 L 255.5,221.0 L 255.5,224.0 L 255.5,227.0 L 254.5,229.0 L 254.5,232.0 L 254.5,235.0 L 254.5,238.0 L 254.5,241.0 L 254.5,244.0 L 255.5,246.0 L 255.5,249.0 L 255.5,252.0 L 256.5,254.0 L 257.5,256.0 L 258.5,258.0 L 258.5,261.0 L 260.0,262.5 L 260.5,265.0 L 261.5,267.0 L 261.0,269.5" fill="none" stroke="#dcc8a8" stroke-width="1"/><path d="M 340.0,196.5 L 337.5,196.0 L 336.5,194.0 L 338.5,193.0 L 340.5,192.0 L 342.0,190.5 L 345.0,190.5 L 346.5,192.0 L 344.0,192.5 L 342.0,193.5 L 341.0,195.5" fill="none" stroke="#dcc8a8" stroke-width="1"/><path d="M 446.0,203.5 L 445.5,201.0 L 445.5,198.0 L 445.5,195.0 L 446.5,194.0 L 446.5,197.0 L 446.5,200.0 L 446.5,203.0" fill="none" stroke="#dcc8a8" stroke-width="1"/><path d="M 339.0,209.5 L 336.0,209.5 L 333.5,209.0 L 332.0,207.5 L 331.0,205.5 L 329.5,204.0 L 329.5,201.0 L 330.5,199.0 L 332.0,197.5 L 334.0,196.5 L 335.5,198.0 L 334.0,199.5 L 333.5,202.0 L 334.5,204.0 L 336.0,205.5 L 338.0,206.5 L 341.0,206.5 L 342.0,204.5 L 342.5,202.0 L 345.0,201.5 L 347.0,202.5 L 348.5,204.0 L 347.5,206.0 L 345.0,206.5 L 342.5,207.0 L 341.0,208.5 L 339.0,209.5" fill="none" stroke="#dcc8a8" stroke-width="1"/><path d="M 387.0,232.5 L 384.0,232.5 L 382.0,231.5 L 380.0,230.5 L 378.0,229.5 L 377.0,227.5 L 375.5,226.0 L 374.5,224.0 L 374.5,221.0 L 374.5,218.0 L 377.0,217.5 L 378.5,219.0 L 379.0,221.5 L 379.5,224.0 L 381.5,225.0 L 383.5,225.0 L 384.5,223.0 L 385.0,220.5 L 386.0,221.5 L 385.5,224.0 L 385.5,227.0 L 387.0,228.5 L 388.5,230.0 L 387.5,232.0" fill="none" stroke="#dcc8a8" stroke-width="1"/><path d="M 536.0,275.5 L 533.0,275.5 L 532.0,274.5 L 534.5,274.0 L 535.5,272.0 L 537.5,271.0 L 538.5,269.0 L 540.0,267.5 L 540.5,265.0 L 541.5,263.0 L 541.5,260.0 L 541.5,257.0 L 542.5,255.0 L 543.5,253.0 L 543.5,250.0 L 541.0,249.5 L 538.0,249.5 L 536.0,248.5 L 534.0,247.5 L 531.0,247.5 L 528.0,247.5 L 525.0,247.5 L 523.5,249.0 L 522.0,250.5 L 519.5,251.0 L 518.0,252.5 L 516.0,253.5 L 514.5,255.0 L 513.0,256.5 L 512.0,255.5 L 513.0,253.5 L 514.5,252.0 L 516.5,251.0 L 518.0,249.5 L 520.0,248.5 L 522.0,247.5 L 523.0,245.5 L 526.0,245.5 L 528.0,244.5 L 531.0,244.5 L 533.0,243.5 L 536.0,243.5 L 538.5,244.0 L 541.0,244.5 L 543.0,243.5 L 544.5,242.0 L 546.5,241.0 L 548.0,239.5 L 550.5,240.0 L 552.0,241.5 L 553.5,243.0 L 553.5,246.0 L 552.0,247.5 L 550.5,249.0 L 549.0,250.5 L 547.5,252.0 L 547.5,255.0 L 547.0,256.5 L 547.5,259.0 L 546.5,261.0 L 546.0,263.5 L 544.5,265.0 L 543.5,267.0 L 542.5,269.0 L 540.5,270.0 L 540.0,272.5 L 538.0,273.5 L 536.5,275.0" fill="none" stroke="#dcc8a8" stroke-width="1"/><path d="M 276.0,264.5 L 275.5,262.0 L 274.5,260.0 L 275.0,257.5 L 276.5,257.0 L 277.0,259.5 L 277.5,262.0 L 276.5,264.0" fill="none" stroke="#dcc8a8" stroke-width="1"/><path d="M 437.0,276.5 L 435.0,275.5 L 434.0,273.5 L 432.0,272.5 L 432.0,270.5 L 434.5,271.0 L 436.5,272.0 L 437.5,274.0 L 437.0,276.5" fill="none" stroke="#dcc8a8" stroke-width="1"/><path d="M 469.0,297.5 L 467.0,296.5 L 466.5,294.0 L 465.5,292.0 L 465.5,289.0 L 465.5,286.0 L 466.0,283.5 L 466.5,281.0 L 467.0,278.5 L 468.0,276.5 L 469.5,275.0 L 470.5,273.0 L 471.5,271.0 L 473.0,271.5 L 473.5,274.0 L 474.0,275.5 L 472.5,277.0 L 471.0,278.5 L 470.5,281.0 L 470.5,284.0 L 470.5,287.0 L 470.5,290.0 L 471.5,292.0 L 472.5,294.0 L 471.5,296.0 L 469.5,297.0" fill="none" stroke="#dcc8a8" stroke-width="1"/><path d="M 350.0,317.5 L 349.5,315.0 L 348.5,313.0 L 348.0,310.5 L 347.5,308.0 L 346.0,306.5 L 345.5,304.0 L 345.0,301.5 L 344.5,299.0 L 343.0,297.5 L 342.5,295.0 L 341.5,293.0 L 340.5,291.0 L 338.5,291.0 L 337.0,292.5 L 335.5,291.0 L 335.5,288.0 L 336.5,286.0 L 337.5,284.0 L 338.5,282.0 L 339.5,280.0 L 342.0,279.5 L 344.0,280.5 L 344.5,283.0 L 344.5,286.0 L 344.5,289.0 L 345.5,291.0 L 345.5,294.0 L 346.5,296.0 L 347.5,298.0 L 348.0,300.5 L 348.5,303.0 L 349.5,305.0 L 350.5,307.0 L 350.5,310.0 L 350.5,313.0 L 350.5,316.0" fill="none" stroke="#dcc8a8" stroke-width="1"/><path d="M 420.0,293.5 L 419.5,291.0 L 418.0,289.5 L 416.0,288.5 L 415.5,286.0 L 417.0,284.5 L 419.5,285.0 L 419.5,288.0 L 420.5,290.0 L 420.5,293.0" fill="none" stroke="#dcc8a8" stroke-width="1"/><path d="M 404.0,297.5 L 402.5,296.0 L 403.0,293.5 L 404.0,291.5 L 406.0,290.5 L 408.0,289.5 L 409.5,291.0 L 408.0,292.5 L 406.5,294.0 L 405.5,296.0 L 404.0,297.5" fill="none" stroke="#dcc8a8" stroke-width="1"/><path d="M 524.0,306.5 L 521.0,306.5 L 519.5,305.0 L 521.0,303.5 L 523.0,302.5 L 525.0,301.5 L 526.5,300.0 L 528.0,298.5 L 529.5,297.0 L 529.5,294.0 L 529.0,291.5 L 530.0,290.5 L 532.0,291.5 L 533.5,293.0 L 534.5,295.0 L 535.5,297.0 L 534.5,299.0 L 534.0,301.5 L 532.0,302.5 L 530.5,304.0 L 528.5,305.0 L 526.0,305.5 L 524.0,306.5" fill="none" stroke="#dcc8a8" stroke-width="1"/><path d="M 401.0,308.5 L 400.5,306.0 L 400.5,303.0 L 400.5,300.0 L 401.0,297.5 L 402.5,299.0 L 402.5,302.0 L 402.5,305.0 L 401.5,307.0" fill="none" stroke="#dcc8a8" stroke-width="1"/><path d="M 340.0,317.5 L 339.5,315.0 L 339.5,312.0 L 339.5,309.0 L 340.5,308.0 L 340.5,311.0 L 340.5,314.0 L 340.5,317.0" fill="none" stroke="#dcc8a8" stroke-width="1"/><path d="M 261.0,335.5 L 259.5,334.0 L 258.5,332.0 L 257.5,330.0 L 256.0,328.5 L 255.0,326.5 L 254.5,324.0 L 253.5,322.0 L 252.5,320.0 L 251.5,318.0 L 250.5,316.0 L 249.0,314.5 L 248.5,312.0 L 249.0,309.5 L 251.0,308.5 L 253.0,309.5 L 255.0,310.5 L 256.5,312.0 L 258.5,313.0 L 260.0,314.5 L 262.0,315.5 L 263.5,317.0 L 265.5,318.0 L 267.5,319.0 L 270.0,319.5 L 271.5,321.0 L 274.0,321.5 L 276.0,322.5 L 278.5,323.0 L 280.0,324.5 L 282.0,325.5 L 284.0,326.5 L 283.0,327.5 L 280.0,327.5 L 278.5,326.0 L 276.5,325.0 L 274.0,324.5 L 271.5,324.0 L 269.5,323.0 L 267.5,322.0 L 265.5,322.0 L 263.5,323.0 L 262.0,322.5 L 260.5,321.0 L 259.5,322.0 L 259.0,323.5 L 259.5,326.0 L 260.5,328.0 L 261.5,330.0 L 261.5,333.0 L 261.0,335.5" fill="none" stroke="#dcc8a8" stroke-width="1"/><path d="M 327.0,323.5 L 326.5,321.0 L 326.5,318.0 L 326.5,315.0 L 327.0,312.5 L 328.5,314.0 L 328.5,317.0 L 328.5,320.0 L 327.5,322.0" fill="none" stroke="#dcc8a8" stroke-width="1"/><path d="M 433.0,330.5 L 431.0,329.5 L 430.5,327.0 L 432.0,325.5 L 433.5,324.0 L 434.5,322.0 L 434.5,319.0 L 435.5,317.0 L 436.0,314.5 L 438.0,315.5 L 438.5,318.0 L 438.5,321.0 L 438.0,323.5 L 436.5,325.0 L 435.5,327.0 L 434.5,329.0 L 433.0,330.5" fill="none" stroke="#dcc8a8" stroke-width="1"/><path d="M 353.0,350.5 L 352.5,348.0 L 351.5,346.0 L 351.5,343.0 L 352.5,341.0 L 351.5,339.0 L 352.5,337.0 L 352.5,334.0 L 352.5,331.0 L 352.5,328.0 L 353.0,325.5 L 353.5,328.0 L 353.5,331.0 L 353.5,334.0 L 353.5,337.0 L 353.5,340.0 L 353.5,343.0 L 353.5,346.0 L 353.5,349.0" fill="none" stroke="#dcc8a8" stroke-width="1"/><path d="M 274.0,337.5 L 272.0,336.5 L 271.0,334.5 L 269.0,333.5 L 268.5,331.0 L 266.5,330.0 L 265.5,328.0 L 267.0,328.5 L 269.0,329.5 L 270.0,331.5 L 272.0,332.5 L 273.5,334.0 L 274.5,336.0" fill="none" stroke="#dcc8a8" stroke-width="1"/><path d="M 264.0,343.5 L 262.5,342.0 L 262.5,339.0 L 262.0,336.5 L 263.0,335.5 L 263.5,338.0 L 264.5,340.0 L 264.5,343.0" fill="none" stroke="#dcc8a8" stroke-width="1"/><path d="M 283.0,372.5 L 281.5,371.0 L 280.0,369.5 L 278.5,368.0 L 277.5,366.0 L 275.5,365.0 L 274.5,363.0 L 273.0,361.5 L 272.0,359.5 L 271.5,357.0 L 270.0,355.5 L 268.5,354.0 L 267.5,352.0 L 267.0,349.5 L 265.5,348.0 L 264.5,346.0 L 265.0,343.5 L 267.0,344.5 L 267.5,347.0 L 268.5,349.0 L 270.5,350.0 L 271.0,352.5 L 272.0,354.5 L 273.5,356.0 L 274.5,358.0 L 276.0,359.5 L 277.0,361.5 L 278.0,363.5 L 279.5,365.0 L 280.5,367.0 L 282.0,368.5 L 283.0,370.5 L 283.0,372.5" fill="none" stroke="#dcc8a8" stroke-width="1"/><path d="M 379.0,400.5 L 377.5,399.0 L 376.0,397.5 L 374.5,396.0 L 373.5,394.0 L 372.0,392.5 L 371.0,390.5 L 370.5,388.0 L 369.5,386.0 L 368.5,384.0 L 368.0,381.5 L 367.5,379.0 L 367.5,376.0 L 367.5,373.0 L 366.5,371.0 L 365.5,369.0 L 366.0,366.5 L 366.5,364.0 L 365.5,362.0 L 366.5,360.0 L 367.5,358.0 L 368.5,356.0 L 367.5,354.0 L 365.0,353.5 L 364.0,351.5 L 363.5,349.0 L 365.0,347.5 L 367.0,346.5 L 369.0,347.5 L 370.5,349.0 L 370.5,352.0 L 372.0,353.5 L 375.0,353.5 L 377.0,354.5 L 378.0,356.5 L 379.5,358.0 L 378.0,359.5 L 375.0,359.5 L 372.5,360.0 L 371.0,361.5 L 370.5,364.0 L 370.0,366.5 L 369.5,369.0 L 369.5,372.0 L 370.5,374.0 L 370.5,377.0 L 370.5,380.0 L 371.5,382.0 L 373.5,383.0 L 374.0,385.5 L 374.5,388.0 L 374.5,391.0 L 375.5,393.0 L 376.5,395.0 L 378.0,396.5 L 379.0,398.5 L 379.0,400.5" fill="none" stroke="#dcc8a8" stroke-width="1"/><path d="M 475.0,377.5 L 474.0,375.5 L 473.5,373.0 L 474.5,371.0 L 473.5,369.0 L 472.0,367.5 L 470.0,368.5 L 468.0,369.5 L 465.5,369.0 L 467.0,367.5 L 468.5,366.0 L 469.5,364.0 L 471.0,362.5 L 472.5,361.0 L 474.0,359.5 L 476.0,358.5 L 478.5,359.0 L 478.5,362.0 L 478.0,364.5 L 477.0,366.5 L 476.5,369.0 L 475.5,371.0 L 475.5,374.0 L 475.5,377.0" fill="none" stroke="#dcc8a8" stroke-width="1"/><path d="M 546.0,408.5 L 544.5,407.0 L 546.0,405.5 L 547.0,403.5 L 547.5,401.0 L 548.5,399.0 L 549.5,397.0 L 550.5,395.0 L 550.5,392.0 L 551.5,390.0 L 551.5,387.0 L 550.0,385.5 L 547.0,385.5 L 544.5,385.0 L 544.0,383.5 L 546.0,382.5 L 547.5,381.0 L 549.0,379.5 L 549.0,377.5 L 547.0,376.5 L 544.5,377.0 L 543.0,378.5 L 540.0,378.5 L 537.0,378.5 L 534.0,378.5 L 535.0,377.5 L 537.0,376.5 L 540.0,376.5 L 541.5,375.0 L 543.5,374.0 L 546.0,373.5 L 547.5,372.0 L 549.0,370.5 L 551.0,371.5 L 553.5,372.0 L 555.0,373.5 L 558.0,373.5 L 560.5,373.0 L 562.0,373.5 L 563.5,375.0 L 563.5,378.0 L 562.0,379.5 L 560.5,381.0 L 559.0,382.5 L 557.5,384.0 L 556.5,386.0 L 555.5,388.0 L 554.0,389.5 L 553.5,392.0 L 553.5,395.0 L 553.5,398.0 L 553.0,400.5 L 552.0,402.5 L 550.5,404.0 L 549.0,405.5 L 547.5,407.0 L 546.0,408.5" fill="none" stroke="#dcc8a8" stroke-width="1"/><path d="M 382.0,385.5 L 380.0,384.5 L 379.5,382.0 L 379.0,380.5 L 379.5,378.0 L 380.5,376.0 L 381.5,374.0 L 382.5,373.0 L 382.5,376.0 L 383.0,378.5 L 383.5,381.0 L 382.5,383.0 L 382.0,385.5" fill="none" stroke="#dcc8a8" stroke-width="1"/><path d="M 514.0,385.5 L 511.5,385.0 L 512.5,383.0 L 513.0,380.5 L 515.0,379.5 L 516.0,377.5 L 518.0,376.5 L 520.0,375.5 L 522.5,376.0 L 523.5,378.0 L 521.0,378.5 L 519.0,379.5 L 517.5,381.0 L 516.0,382.5 L 514.5,384.0" fill="none" stroke="#dcc8a8" stroke-width="1"/><path d="M 494.0,408.5 L 492.5,407.0 L 493.5,405.0 L 495.5,404.0 L 496.5,402.0 L 498.5,402.0 L 498.0,404.5 L 496.0,405.5 L 495.0,407.5" fill="none" stroke="#dcc8a8" stroke-width="1"/><path d="M 484.0,436.5 L 481.0,436.5 L 478.0,436.5 L 476.0,435.5 L 475.0,434.5 L 477.0,433.5 L 479.0,434.5 L 482.0,434.5 L 484.0,435.5" fill="none" stroke="#dcc8a8" stroke-width="1"/><path d="M 523.0,444.5 L 521.5,443.0 L 521.5,440.0 L 521.5,437.0 L 523.0,435.5 L 524.5,437.0 L 526.0,438.5 L 525.5,440.0 L 524.5,442.0 L 523.5,444.0" fill="none" stroke="#dcc8a8" stroke-width="1"/><path d="M 495.0,444.5 L 493.0,443.5 L 491.5,442.0 L 490.5,440.0 L 490.0,438.5 L 492.5,439.0 L 492.0,440.5 L 494.0,441.5 L 496.0,442.5 L 495.5,444.0" fill="none" stroke="#dcc8a8" stroke-width="1"/><path d="M 491.0,456.5 L 489.0,455.5 L 486.0,455.5 L 483.0,455.5 L 482.0,454.5 L 484.0,453.5 L 487.0,453.5 L 488.5,452.0 L 489.5,450.0 L 489.5,447.0 L 487.0,446.5 L 484.0,446.5 L 482.0,445.5 L 479.0,445.5 L 478.0,444.5 L 481.0,444.5 L 484.0,444.5 L 487.0,444.5 L 489.5,445.0 L 491.0,446.5 L 493.0,445.5 L 495.5,445.0 L 497.0,443.5 L 498.5,445.0 L 501.0,445.5 L 503.0,446.5 L 505.0,445.5 L 507.0,444.5 L 510.0,444.5 L 511.5,446.0 L 512.5,448.0 L 511.5,450.0 L 510.0,451.5 L 508.0,452.5 L 506.0,451.5 L 505.0,449.5 L 503.5,449.0 L 501.5,450.0 L 500.5,452.0 L 498.5,453.0 L 496.5,454.0 L 495.0,455.5 L 492.0,455.5" fill="none" stroke="#dcc8a8" stroke-width="1"/><path d="M 410.0,465.5 L 407.0,465.5 L 404.5,465.0 L 403.0,463.5 L 400.5,463.0 L 398.5,462.0 L 396.5,461.0 L 394.5,460.0 L 392.0,459.5 L 389.0,459.5 L 387.0,458.5 L 384.5,458.0 L 386.0,456.5 L 388.0,455.5 L 391.0,455.5 L 394.0,455.5 L 396.5,456.0 L 398.5,457.0 L 400.5,458.0 L 402.0,459.5 L 403.5,461.0 L 405.0,462.5 L 407.5,463.0 L 409.5,464.0 L 410.0,465.5" fill="none" stroke="#dcc8a8" stroke-width="1"/><path d="M 337.5,467.0 L 337.5,464.0 L 337.5,461.0 L 336.5,460.0 L 336.5,463.0 L 336.5,466.0 L 336.0,467.5" fill="none" stroke="#dcc8a8" stroke-width="1"/><path d="M 209.5,667.0 L 210.5,665.0 L 211.0,662.5 L 212.5,661.0 L 213.5,659.0 L 213.5,656.0 L 214.5,654.0 L 216.0,652.5 L 216.5,650.0 L 217.5,648.0 L 219.0,646.5 L 219.5,644.0 L 220.5,642.0 L 222.0,640.5 L 223.0,638.5 L 223.5,636.0 L 224.5,634.0 L 226.0,632.5 L 226.5,630.0 L 227.5,628.0 L 229.0,626.5 L 229.5,624.0 L 230.5,622.0 L 232.0,620.5 L 232.5,618.0 L 233.5,616.0 L 235.0,614.5 L 235.5,612.0 L 236.5,610.0 L 238.0,608.5 L 238.5,606.0 L 240.0,604.5 L 241.5,603.0 L 242.5,601.0 L 243.5,599.0 L 245.0,597.5 L 246.0,595.5 L 247.5,594.0 L 248.5,592.0 L 250.0,590.5 L 251.5,589.0 L 252.5,587.0 L 254.0,585.5 L 255.5,584.0 L 256.5,582.0 L 258.0,580.5 L 259.5,579.0 L 260.5,577.0 L 261.5,575.0 L 263.0,573.5 L 264.0,571.5 L 265.0,569.5 L 266.5,568.0 L 267.5,566.0 L 269.0,564.5 L 270.5,563.0 L 271.5,561.0 L 273.0,559.5 L 274.0,557.5 L 275.0,555.5 L 276.5,554.0 L 277.5,552.0 L 278.5,550.0 L 280.0,548.5 L 281.0,546.5 L 283.0,545.5 L 284.0,543.5 L 285.5,542.0 L 287.0,540.5 L 288.0,538.5 L 289.5,537.0 L 291.0,535.5 L 292.5,534.0 L 293.5,532.0 L 295.0,530.5 L 296.5,529.0 L 298.0,527.5 L 299.5,526.0 L 300.5,524.0 L 302.0,522.5 L 303.0,520.5 L 305.0,519.5 L 306.0,517.5 L 307.0,515.5 L 308.5,514.0 L 309.5,512.0 L 311.0,510.5 L 312.5,509.0 L 314.0,507.5 L 315.5,506.0 L 316.0,503.5 L 317.5,502.0 L 318.5,500.0 L 319.5,498.0 L 321.0,496.5 L 321.5,494.0 L 322.5,492.0 L 323.5,490.0 L 324.5,488.0 L 325.5,486.0 L 325.5,483.0 L 326.5,481.0 L 327.5,479.0 L 328.0,476.5 L 328.5,474.0 L 327.5,472.0 L 325.0,471.5 L 322.5,472.0 L 320.0,472.5 L 318.5,474.0 L 317.0,475.5 L 315.5,477.0 L 314.0,478.5 L 312.5,480.0 L 311.0,481.5 L 309.5,483.0 L 308.5,485.0 L 307.0,486.5 L 306.0,488.5 L 304.5,490.0 L 303.5,492.0 L 303.0,494.5 L 301.5,496.0 L 300.0,495.5 L 299.5,493.0 L 300.5,491.0 L 301.5,489.0 L 302.5,487.0 L 303.5,485.0 L 304.5,483.0 L 303.0,481.5 L 300.5,482.0 L 298.0,482.5 L 295.5,483.0 L 293.5,484.0 L 291.5,485.0 L 289.0,485.5 L 287.5,487.0 L 286.0,488.5 L 283.5,489.0 L 282.0,490.5 L 280.0,491.5 L 278.0,492.5 L 277.0,494.5 L 274.5,495.0 L 273.5,497.0 L 271.5,498.0 L 270.5,500.0 L 269.0,501.5 L 267.5,503.0 L 266.0,504.5 L 265.0,506.5 L 264.0,508.5 L 263.0,510.5 L 261.5,512.0 L 261.0,514.5 L 260.0,516.5 L 259.5,519.0 L 258.5,521.0 L 258.0,522.5 L 260.0,523.5 L 262.5,523.0 L 264.5,523.0 L 266.5,524.0 L 269.0,524.5 L 271.5,524.0 L 274.0,523.5 L 276.0,524.5 L 277.0,525.5 L 274.5,526.0 L 272.0,526.5 L 270.0,525.5 L 267.5,526.0 L 265.0,526.5 L 262.0,526.5 L 260.0,527.5 L 258.5,529.0 L 256.0,529.5 L 254.0,530.5 L 252.5,532.0 L 251.0,533.5 L 249.5,535.0 L 248.5,537.0 L 247.5,539.0 L 249.0,540.5 L 252.0,540.5 L 254.0,539.5 L 257.0,539.5 L 260.0,539.5 L 262.5,539.0 L 264.0,537.5 L 266.0,536.5 L 269.0,536.5 L 271.0,535.5 L 272.5,534.0 L 274.5,533.0 L 276.0,531.5 L 278.0,530.5 L 279.5,529.0 L 280.5,527.0 L 280.0,525.5 L 282.0,524.5 L 284.0,523.5 L 286.0,522.5 L 287.5,521.0 L 288.5,519.0 L 290.5,519.0 L 290.0,521.5 L 289.0,523.5 L 288.0,525.5 L 286.5,527.0 L 285.5,529.0 L 284.0,530.5 L 283.0,532.5 L 281.0,533.5 L 280.0,535.5 L 278.0,536.5 L 276.0,537.5 L 274.5,539.0 L 272.0,539.5 L 270.0,540.5 L 267.5,541.0 L 265.0,541.5 L 263.0,542.5 L 260.0,542.5 L 258.0,543.5 L 255.0,543.5 L 253.5,545.0 L 251.0,545.5 L 249.0,546.5 L 246.5,547.0 L 244.5,548.0 L 243.0,549.5 L 240.5,550.0 L 239.0,551.5 L 237.0,552.5 L 235.0,553.5 L 233.5,555.0 L 232.0,556.5 L 230.0,557.5 L 228.5,559.0 L 227.0,560.5 L 226.0,562.5 L 224.0,563.5 L 223.0,565.5 L 221.5,567.0 L 220.5,569.0 L 219.0,570.5 L 217.5,572.0 L 217.0,574.5 L 216.0,576.5 L 214.5,578.0 L 214.0,580.5 L 213.5,583.0 L 212.5,585.0 L 211.5,587.0 L 211.0,589.5 L 210.5,592.0 L 210.5,595.0 L 209.5,597.0 L 208.5,599.0 L 207.5,601.0 L 207.5,604.0 L 206.5,606.0 L 206.5,609.0 L 206.5,612.0 L 205.5,614.0 L 205.5,617.0 L 205.5,620.0 L 205.0,622.5 L 204.5,625.0 L 204.5,628.0 L 204.5,631.0 L 204.5,634.0 L 204.5,637.0 L 204.5,640.0 L 204.5,643.0 L 204.5,646.0 L 204.5,649.0 L 205.5,651.0 L 205.5,654.0 L 205.5,657.0 L 206.5,659.0 L 206.5,662.0 L 206.5,665.0 L 207.5,667.0 L 209.5,667.0" fill="none" stroke="#dcc8a8" stroke-width="1"/><path d="M 216.0,527.5 L 214.5,526.0 L 214.5,523.0 L 214.0,520.5 L 213.5,518.0 L 213.5,515.0 L 213.5,512.0 L 213.5,509.0 L 213.5,506.0 L 213.5,503.0 L 213.5,500.0 L 213.5,497.0 L 213.5,494.0 L 214.5,492.0 L 214.5,489.0 L 215.5,487.0 L 216.5,485.0 L 216.5,482.0 L 217.5,480.0 L 219.0,478.5 L 220.0,476.5 L 220.5,474.0 L 222.0,472.5 L 222.5,475.0 L 222.0,477.5 L 221.0,479.5 L 219.5,481.0 L 219.5,484.0 L 218.5,486.0 L 218.0,488.5 L 216.5,490.0 L 216.5,493.0 L 216.5,496.0 L 216.5,499.0 L 216.0,501.5 L 215.5,504.0 L 215.5,507.0 L 215.5,510.0 L 215.5,513.0 L 215.5,516.0 L 216.5,518.0 L 216.5,521.0 L 216.5,524.0 L 216.5,527.0" fill="none" stroke="#dcc8a8" stroke-width="1"/><path d="M 411.0,494.5 L 410.0,492.5 L 408.5,491.0 L 406.0,490.5 L 403.0,490.5 L 400.0,490.5 L 397.5,490.0 L 400.0,489.5 L 403.0,489.5 L 406.0,489.5 L 409.0,489.5 L 411.0,488.5 L 413.5,488.0 L 416.0,487.5 L 417.5,488.0 L 418.5,486.0 L 420.5,485.0 L 423.0,484.5 L 425.0,485.5 L 425.5,488.0 L 424.5,490.0 L 423.0,491.5 L 421.5,493.0 L 419.5,493.0 L 418.5,491.0 L 416.0,490.5 L 414.0,491.5 L 412.0,492.5 L 411.0,494.5" fill="none" stroke="#dcc8a8" stroke-width="1"/><path d="M 267.0,517.5 L 265.0,516.5 L 265.5,515.0 L 267.5,514.0 L 269.5,513.0 L 271.0,511.5 L 273.0,510.5 L 275.0,509.5 L 277.0,508.5 L 278.0,509.5 L 276.5,511.0 L 275.0,512.5 L 273.0,513.5 L 271.5,515.0 L 270.0,516.5 L 267.5,517.0" fill="none" stroke="#dcc8a8" stroke-width="1"/><path d="M 168.0,584.5 L 166.0,583.5 L 165.5,581.0 L 164.5,579.0 L 163.5,577.0 L 162.5,575.0 L 162.5,572.0 L 161.5,570.0 L 161.5,567.0 L 161.5,564.0 L 161.5,561.0 L 161.5,558.0 L 161.5,555.0 L 161.5,552.0 L 161.5,549.0 L 162.5,547.0 L 162.5,544.0 L 162.5,541.0 L 163.0,538.5 L 163.5,536.0 L 163.5,533.0 L 163.5,530.0 L 163.0,527.5 L 162.5,525.0 L 162.5,522.0 L 164.0,520.5 L 167.0,520.5 L 168.5,522.0 L 169.5,524.0 L 170.5,526.0 L 171.5,528.0 L 171.0,530.5 L 170.0,532.5 L 168.0,533.5 L 166.5,535.0 L 166.5,538.0 L 165.5,540.0 L 165.5,543.0 L 165.5,546.0 L 164.5,548.0 L 164.5,551.0 L 164.5,554.0 L 164.5,557.0 L 164.5,560.0 L 165.0,562.5 L 165.5,565.0 L 165.5,568.0 L 165.5,571.0 L 165.5,574.0 L 166.5,576.0 L 167.5,578.0 L 168.0,580.5 L 168.5,583.0" fill="none" stroke="#dcc8a8" stroke-width="1"/><path d="M 422.0,558.5 L 419.0,558.5 L 417.0,557.5 L 416.0,555.5 L 413.5,555.0 L 411.5,554.0 L 410.0,552.5 L 408.0,551.5 L 406.5,550.0 L 404.5,549.0 L 402.5,548.0 L 404.0,546.5 L 406.5,547.0 L 408.0,548.5 L 410.0,549.5 L 412.0,550.5 L 414.0,551.5 L 415.5,553.0 L 417.5,554.0 L 419.0,555.5 L 421.0,556.5 L 422.5,558.0" fill="none" stroke="#dcc8a8" stroke-width="1"/><path d="M 327.0,557.5 L 324.5,557.0 L 325.5,555.0 L 326.5,553.0 L 329.0,552.5 L 331.0,553.5 L 331.0,555.5 L 329.0,556.5 L 327.0,557.5" fill="none" stroke="#dcc8a8" stroke-width="1"/><path d="M 411.0,588.5 L 408.5,588.0 L 406.0,587.5 L 404.5,586.0 L 402.0,585.5 L 400.0,584.5 L 397.0,584.5 L 395.0,583.5 L 393.0,582.5 L 391.0,581.5 L 389.0,580.5 L 386.0,580.5 L 383.0,580.5 L 381.5,579.0 L 383.0,579.5 L 386.0,579.5 L 387.5,578.0 L 387.0,575.5 L 385.0,574.5 L 384.0,572.5 L 382.0,571.5 L 380.5,570.0 L 379.0,568.5 L 377.5,567.0 L 376.0,565.5 L 374.5,564.0 L 373.5,562.0 L 371.5,561.0 L 371.0,558.5 L 371.0,556.5 L 373.0,557.5 L 374.0,559.5 L 376.0,560.5 L 377.0,562.5 L 378.5,564.0 L 380.0,565.5 L 382.0,566.5 L 383.5,568.0 L 385.0,569.5 L 386.0,571.5 L 388.0,572.5 L 389.5,574.0 L 391.5,575.0 L 393.5,576.0 L 396.0,576.5 L 398.0,577.5 L 400.0,578.5 L 402.0,577.5 L 402.5,575.0 L 400.5,574.0 L 399.5,572.0 L 398.0,570.5 L 396.5,569.0 L 395.0,567.5 L 393.5,566.0 L 392.0,564.5 L 390.5,563.0 L 389.0,561.5 L 387.5,560.0 L 386.0,558.5 L 384.0,557.5 L 384.0,555.5 L 386.5,556.0 L 388.5,557.0 L 390.0,558.5 L 392.0,559.5 L 393.5,561.0 L 395.0,562.5 L 396.5,564.0 L 398.0,565.5 L 399.5,567.0 L 401.0,568.5 L 402.5,570.0 L 403.0,572.5 L 404.5,574.0 L 406.0,575.5 L 407.5,577.0 L 409.0,578.5 L 410.0,580.5 L 411.5,582.0 L 412.5,584.0 L 412.5,587.0 L 411.0,588.5" fill="none" stroke="#dcc8a8" stroke-width="1"/><path d="M 489.0,565.5 L 486.0,565.5 L 484.0,564.5 L 481.0,564.5 L 478.5,564.0 L 480.0,562.5 L 482.0,561.5 L 483.5,560.0 L 486.0,559.5 L 489.0,559.5 L 490.0,561.5 L 490.5,564.0 L 489.0,565.5" fill="none" stroke="#dcc8a8" stroke-width="1"/><path d="M 466.0,564.5 L 463.0,564.5 L 460.0,564.5 L 457.0,564.5 L 454.0,564.5 L 451.0,564.5 L 448.0,564.5 L 445.0,564.5 L 442.0,564.5 L 439.0,564.5 L 436.5,564.0 L 439.0,563.5 L 442.0,563.5 L 445.0,563.5 L 448.0,563.5 L 451.0,563.5 L 454.0,563.5 L 457.0,563.5 L 460.0,563.5 L 463.0,563.5 L 466.0,563.5" fill="none" stroke="#dcc8a8" stroke-width="1"/><path d="M 282.0,593.5 L 279.0,593.5 L 279.0,591.5 L 281.5,591.0 L 283.0,589.5 L 285.0,588.5 L 287.0,587.5 L 288.0,585.5 L 290.5,585.0 L 292.0,583.5 L 294.0,582.5 L 296.0,581.5 L 297.5,580.0 L 299.0,578.5 L 301.0,577.5 L 302.5,579.0 L 303.0,580.5 L 301.5,582.0 L 300.5,584.0 L 299.5,586.0 L 299.0,588.5 L 297.5,590.0 L 295.5,590.0 L 294.0,588.5 L 292.0,587.5 L 290.0,588.5 L 288.0,589.5 L 286.0,590.5 L 284.0,591.5 L 282.5,593.0" fill="none" stroke="#dcc8a8" stroke-width="1"/><path d="M 209.5,686.0 L 210.5,684.0 L 212.5,683.0 L 213.5,681.0 L 215.0,679.5 L 216.5,678.0 L 217.5,676.0 L 219.0,674.5 L 220.5,673.0 L 222.0,671.5 L 224.0,670.5 L 225.5,669.0 L 227.0,667.5 L 228.5,666.0 L 230.0,664.5 L 232.0,663.5 L 233.0,661.5 L 235.0,660.5 L 236.0,658.5 L 238.0,657.5 L 238.5,655.0 L 239.5,653.0 L 241.0,651.5 L 241.5,649.0 L 242.5,647.0 L 244.0,645.5 L 244.5,643.0 L 245.5,641.0 L 246.5,639.0 L 247.0,636.5 L 247.5,634.0 L 248.5,632.0 L 249.0,629.5 L 249.5,627.0 L 250.5,625.0 L 251.5,623.0 L 252.0,620.5 L 252.5,618.0 L 253.0,615.5 L 254.0,613.5 L 254.5,611.0 L 255.0,608.5 L 255.5,606.0 L 256.0,603.5 L 256.5,601.0 L 257.5,599.0 L 257.5,596.0 L 258.0,593.5 L 258.5,591.0 L 259.5,589.0 L 260.5,587.0 L 261.0,585.5 L 260.0,583.5 L 258.5,585.0 L 258.0,587.5 L 256.0,588.5 L 255.0,590.5 L 253.5,592.0 L 252.0,593.5 L 251.0,595.5 L 249.5,597.0 L 248.5,599.0 L 247.5,601.0 L 246.0,602.5 L 245.5,605.0 L 244.0,606.5 L 243.0,608.5 L 242.0,610.5 L 241.0,612.5 L 239.5,614.0 L 238.5,616.0 L 237.5,618.0 L 236.5,620.0 L 235.5,622.0 L 234.0,623.5 L 232.5,625.0 L 232.0,627.5 L 230.5,629.0 L 229.5,631.0 L 228.5,633.0 L 228.0,635.5 L 226.5,637.0 L 226.0,639.5 L 225.0,641.5 L 223.5,643.0 L 223.0,645.5 L 222.5,648.0 L 221.0,649.5 L 220.0,651.5 L 219.5,654.0 L 218.5,656.0 L 217.5,658.0 L 216.5,660.0 L 215.5,662.0 L 214.5,664.0 L 213.5,666.0 L 213.5,669.0 L 212.5,671.0 L 211.5,673.0 L 210.5,675.0 L 209.5,677.0 L 209.0,679.5 L 208.0,681.5 L 207.5,684.0 L 208.0,686.5" fill="none" stroke="#dcc8a8" stroke-width="1"/><path d="M 175.0,597.5 L 173.0,596.5 L 172.5,594.0 L 171.5,592.0 L 173.5,592.0 L 174.5,594.0 L 175.5,596.0" fill="none" stroke="#dcc8a8" stroke-width="1"/><path d="M 325.0,629.5 L 322.0,629.5 L 319.0,629.5 L 319.0,627.5 L 322.0,627.5 L 324.0,626.5 L 327.0,626.5 L 329.0,625.5 L 331.0,624.5 L 334.0,624.5 L 336.0,623.5 L 339.0,623.5 L 342.0,623.5 L 345.0,623.5 L 348.0,623.5 L 351.0,623.5 L 354.0,623.5 L 356.5,624.0 L 359.0,624.5 L 361.5,625.0 L 359.0,625.5 L 356.0,625.5 L 354.5,626.0 L 352.5,626.0 L 350.0,626.5 L 347.0,626.5 L 344.0,626.5 L 341.0,626.5 L 338.5,627.0 L 336.0,627.5 L 333.0,627.5 L 331.0,628.5 L 328.0,628.5 L 325.5,629.0" fill="none" stroke="#dcc8a8" stroke-width="1"/><path d="M 418.0,658.5 L 415.0,658.5 L 413.0,657.5 L 410.0,657.5 L 407.0,657.5 L 404.0,657.5 L 401.0,657.5 L 398.0,657.5 L 395.0,657.5 L 392.0,657.5 L 389.0,657.5 L 386.0,657.5 L 383.0,657.5 L 382.0,656.5 L 385.0,656.5 L 387.0,655.5 L 390.0,655.5 L 393.0,655.5 L 396.0,655.5 L 398.5,655.0 L 400.0,653.5 L 402.0,652.5 L 404.0,651.5 L 403.5,650.0 L 401.5,649.0 L 399.0,648.5 L 397.0,647.5 L 395.0,646.5 L 393.0,645.5 L 390.0,645.5 L 387.0,645.5 L 384.5,645.0 L 382.0,644.5 L 380.0,643.5 L 378.0,642.5 L 375.0,642.5 L 373.0,641.5 L 370.0,641.5 L 367.5,641.0 L 369.0,639.5 L 372.0,639.5 L 375.0,639.5 L 377.5,640.0 L 380.0,640.5 L 382.0,641.5 L 384.0,642.5 L 387.0,642.5 L 389.5,642.0 L 390.0,640.5 L 388.0,639.5 L 386.5,638.0 L 385.0,636.5 L 383.0,635.5 L 381.0,634.5 L 379.5,633.0 L 377.0,632.5 L 374.5,632.0 L 372.5,631.0 L 371.0,629.5 L 368.0,629.5 L 366.0,628.5 L 363.5,628.0 L 365.5,627.0 L 368.0,626.5 L 370.5,627.0 L 373.0,627.5 L 374.0,629.5 L 377.0,629.5 L 379.0,630.5 L 381.0,631.5 L 383.0,632.5 L 385.0,633.5 L 387.0,634.5 L 389.0,635.5 L 391.0,636.5 L 392.5,638.0 L 394.5,639.0 L 396.5,640.0 L 398.0,641.5 L 400.0,642.5 L 402.0,643.5 L 404.0,644.5 L 406.0,645.5 L 408.0,646.5 L 409.5,648.0 L 411.5,649.0 L 413.5,650.0 L 415.0,651.5 L 417.5,652.0 L 418.5,654.0 L 419.5,656.0 L 418.5,658.0" fill="none" stroke="#dcc8a8" stroke-width="1"/><path d="M 312.0,649.5 L 310.0,648.5 L 307.5,648.0 L 305.0,647.5 L 303.5,646.0 L 301.0,645.5 L 298.0,645.5 L 295.0,645.5 L 292.0,645.5 L 289.0,645.5 L 286.0,645.5 L 284.0,644.5 L 281.0,644.5 L 279.0,645.5 L 276.5,645.0 L 276.0,643.5 L 279.0,643.5 L 282.0,643.5 L 284.0,642.5 L 286.0,641.5 L 288.0,640.5 L 290.0,639.5 L 292.5,639.0 L 295.0,638.5 L 297.0,637.5 L 299.0,636.5 L 301.0,635.5 L 303.5,635.0 L 305.0,633.5 L 307.5,633.0 L 310.0,632.5 L 311.0,630.5 L 314.0,630.5 L 316.0,629.5 L 317.5,631.0 L 315.5,632.0 L 313.0,632.5 L 311.0,633.5 L 311.5,635.0 L 313.0,636.5 L 316.0,636.5 L 319.0,636.5 L 322.0,636.5 L 325.0,636.5 L 328.0,636.5 L 330.0,635.5 L 333.0,635.5 L 335.0,636.5 L 336.5,638.0 L 334.5,639.0 L 332.0,639.5 L 329.0,639.5 L 326.0,639.5 L 324.0,640.5 L 321.0,640.5 L 318.5,641.0 L 316.0,641.5 L 313.0,641.5 L 311.0,642.5 L 308.5,643.0 L 307.5,645.0 L 310.0,645.5 L 312.0,646.5 L 312.5,649.0" fill="none" stroke="#dcc8a8" stroke-width="1"/><path d="M 353.0,668.5 L 351.0,667.5 L 348.0,667.5 L 346.0,666.5 L 343.0,666.5 L 341.0,665.5 L 338.5,665.0 L 336.0,664.5 L 334.0,663.5 L 334.0,661.5 L 337.0,661.5 L 339.0,662.5 L 342.0,662.5 L 344.0,663.5 L 346.0,664.5 L 349.0,664.5 L 352.0,664.5 L 354.0,665.5 L 354.0,667.5" fill="none" stroke="#dcc8a8" stroke-width="1"/><path d="M 275.0,690.5 L 272.0,690.5 L 270.5,689.0 L 272.5,688.0 L 274.5,687.0 L 275.5,685.0 L 277.0,685.5 L 277.5,688.0 L 276.0,689.5" fill="none" stroke="#dcc8a8" stroke-width="1"/></svg>